<?xml version="1.0" encoding="utf-8"?>
<!-- Generator: Adobe Illustrator 22.1.0, SVG Export Plug-In . SVG Version: 6.00 Build 0)  -->
<svg version="1.1" id="_x32_" xmlns="http://www.w3.org/2000/svg" xmlns:xlink="http://www.w3.org/1999/xlink" x="0px" y="0px"
	 viewBox="0 0 40 40" style="enable-background:new 0 0 40 40;" xml:space="preserve">
<style type="text/css">
	.st0{fill:#FFFFFF;}
	.st1{fill:none;}
</style>
<g>
	<g>
		<path class="st0" d="M37.3,20.5c0.1-0.1,0.2-0.3,0.2-0.5s-0.1-0.4-0.2-0.5l-3.4-2.9c-0.2-0.2-0.3-0.5-0.2-0.7l1.5-4.2
			c0.1-0.2,0-0.4,0-0.5c-0.1-0.2-0.3-0.3-0.4-0.3l-4.4-0.8c-0.3,0-0.5-0.3-0.5-0.5l-0.8-4.4c0-0.2-0.1-0.3-0.3-0.4
			c-0.2-0.1-0.4-0.1-0.5,0l-4.2,1.5c-0.3,0.1-0.5,0-0.7-0.2l-2.9-3.4c-0.1-0.1-0.3-0.2-0.5-0.2s-0.4,0.1-0.5,0.2l-2.9,3.4
			c-0.2,0.2-0.5,0.3-0.7,0.2l-4.2-1.5c-0.2-0.1-0.4,0-0.5,0c-0.2,0.1-0.3,0.3-0.3,0.4l-0.8,4.4c0,0.3-0.3,0.5-0.5,0.5l-4.4,0.8
			c-0.2,0-0.3,0.1-0.4,0.3c-0.1,0.2-0.1,0.4,0,0.5l1.5,4.2c0.1,0.3,0,0.5-0.2,0.7l-3.4,2.9c-0.1,0.1-0.2,0.3-0.2,0.5
			s0.1,0.4,0.2,0.5l3.4,2.9c0.2,0.2,0.3,0.5,0.2,0.7l-1.5,4.2c-0.1,0.2,0,0.4,0,0.5c0.1,0.2,0.3,0.3,0.4,0.3l4.4,0.8
			c0.3,0,0.5,0.3,0.5,0.5l0.8,4.4c0,0.2,0.1,0.3,0.3,0.4c0.2,0.1,0.4,0.1,0.5,0l4.2-1.5c0.3-0.1,0.5,0,0.7,0.2l2.9,3.4
			c0.1,0.1,0.3,0.2,0.5,0.2c0.2,0,0.4-0.1,0.5-0.2l2.9-3.4c0.2-0.2,0.5-0.3,0.7-0.2l4.2,1.5c0.2,0.1,0.4,0,0.5,0
			c0.2-0.1,0.3-0.3,0.3-0.4l0.8-4.4c0-0.3,0.3-0.5,0.5-0.5l4.4-0.8c0.2,0,0.3-0.1,0.4-0.3c0.1-0.2,0.1-0.4,0-0.5l-1.5-4.2
			c-0.1-0.3,0-0.5,0.2-0.7L37.3,20.5z M20,31.6c-6.4,0-11.6-5.2-11.6-11.6S13.6,8.4,20,8.4S31.6,13.6,31.6,20S26.4,31.6,20,31.6z"/>
	</g>
	<rect class="st1" width="40" height="40"/>
</g>
</svg>
