<?xml version="1.0" encoding="utf-8"?>
<!-- Generator: Adobe Illustrator 22.1.0, SVG Export Plug-In . SVG Version: 6.00 Build 0)  -->
<svg version="1.1" id="_x32_" xmlns="http://www.w3.org/2000/svg" xmlns:xlink="http://www.w3.org/1999/xlink" x="0px" y="0px"
	 viewBox="0 0 40 40" style="enable-background:new 0 0 40 40;" xml:space="preserve">
<style type="text/css">
	.st0{fill:#FFFFFF;}
	.st1{fill:none;}
</style>
<g>
	<g>
		<path class="st0" d="M5.2,22.3C4.5,21.6,4,20.6,4,19.4c0-1.1,0.5-2.2,1.2-2.9C6,15.8,7,15.3,8.1,15.3c0.4,0,0.8,0.1,1.2,0.2
			l0.9,0.3l0.1-0.9c0.1-1.4,0.8-2.6,1.8-3.5c1-0.9,2.3-1.4,3.7-1.4c1,0,1.9,0.3,2.7,0.7c0.8,0.4,1.5,1.1,2,1.8l1.3-0.8
			c-0.6-1-1.5-1.8-2.5-2.3c-1-0.6-2.2-0.9-3.4-0.9c-1.8,0-3.5,0.7-4.7,1.8c-1,0.9-1.8,2.2-2.1,3.6c-0.3,0-0.5-0.1-0.8-0.1
			c-1.5,0-3,0.6-4,1.6c-1,1-1.6,2.4-1.6,4c0,1.5,0.6,3,1.6,4c1,1,2.4,1.6,4,1.6h0v-1.5h0C7,23.5,6,23.1,5.2,22.3z"/>
		<path class="st0" d="M35.8,21.7c-0.9-0.9-2.1-1.5-3.4-1.6c-0.1-2-1-3.9-2.3-5.3c-1.5-1.5-3.5-2.4-5.7-2.4c-2.1,0-4,0.8-5.4,2.1
			c-1.2,1.1-2.1,2.6-2.5,4.3c-0.3-0.1-0.7-0.1-1.1-0.1c-1.8,0-3.4,0.7-4.5,1.9C9.8,21.8,9,23.4,9,25.2s0.7,3.4,1.9,4.5
			c1.2,1.2,2.8,1.9,4.5,1.9h16.2c1.6,0,3-0.6,4.1-1.7s1.7-2.5,1.7-4.1C37.5,24.2,36.9,22.7,35.8,21.7z M34.7,28.8
			c-0.8,0.8-1.8,1.3-3,1.3H15.5c-1.4,0-2.6-0.5-3.5-1.4c-0.9-0.9-1.4-2.1-1.4-3.5s0.5-2.6,1.4-3.5c0.9-0.9,2.1-1.4,3.5-1.4
			c0.5,0,1,0.1,1.5,0.2l0.9,0.3l0.1-0.9c0.2-1.6,1-3.1,2.1-4.2s2.7-1.7,4.4-1.7c1.8,0,3.4,0.7,4.6,1.9c1.2,1.2,1.9,2.8,1.9,4.6
			c0,0.1,0,0.1,0,0.2l0,0.8l0.8,0c1.2,0,2.2,0.5,3,1.3c0.8,0.8,1.3,1.8,1.3,3C36,27,35.5,28.1,34.7,28.8z"/>
	</g>
	<rect class="st1" width="40" height="40"/>
</g>
</svg>
