<?xml version="1.0" encoding="utf-8"?>
<!-- Generator: Adobe Illustrator 22.1.0, SVG Export Plug-In . SVG Version: 6.00 Build 0)  -->
<svg version="1.1" id="_x32_" xmlns="http://www.w3.org/2000/svg" xmlns:xlink="http://www.w3.org/1999/xlink" x="0px" y="0px"
	 viewBox="0 0 40 40" style="enable-background:new 0 0 40 40;" xml:space="preserve">
<style type="text/css">
	.st0{fill:#FFFFFF;}
	.st1{fill:none;}
</style>
<g>
	<g>
		<path class="st0" d="M33.7,10.6c-1.3-1.3-2.9-2.1-4.7-2.4c-0.6-1.5-1.5-2.8-2.8-3.8c-1.5-1.2-3.5-2-5.6-1.9
			c-2.1,0-4.1,0.8-5.6,2.1c-1.1,1-2,2.2-2.6,3.7c-2.4,0-4.5,1-6,2.6c-1.5,1.6-2.5,3.8-2.5,6.2s1,4.5,2.6,6.1
			c1.6,1.5,3.8,2.5,6.2,2.5c3.3,0,11.9-0.2,15.1-0.2c2.4,0,4.5-1,6.1-2.6c1.5-1.6,2.5-3.8,2.5-6.2C36.2,14.3,35.2,12.1,33.7,10.6z
			 M31.3,20.4c-0.9,1-2.2,1.6-3.7,1.6c-3.2,0-11.8,0.2-15.1,0.2c-1.4,0-2.8-0.5-3.7-1.5c-1-0.9-1.6-2.2-1.6-3.7
			c0-1.4,0.5-2.8,1.5-3.7c0.9-1,2.2-1.6,3.7-1.6c0.3,0,0.6,0,0.9,0.1l1.6,0.3l0.3-1.6c0.2-1.3,0.9-2.4,1.8-3.2
			c0.9-0.8,2.1-1.3,3.5-1.3c1.3,0,2.5,0.4,3.5,1.2c1,0.8,1.7,1.8,1.9,3.1l0.3,1.3l1.3,0c1.4,0,2.7,0.6,3.6,1.5
			c0.9,0.9,1.5,2.2,1.5,3.6C32.8,18.1,32.2,19.4,31.3,20.4z"/>
		<path class="st0" d="M12.7,27.4c0,0-1.3,1.3-1.7,1.6c-0.1,0.2-0.2,0.3-0.3,0.5c-0.2,0.7,0.3,1.4,1,1.6c0.7,0.2,1.4-0.3,1.6-1
			c0-0.2,0.1-0.4,0-0.6C13.3,29.1,12.7,27.4,12.7,27.4z"/>
		<path class="st0" d="M11.1,33.7c0,0-1.3,1.3-1.7,1.6c-0.1,0.2-0.2,0.3-0.3,0.5c-0.2,0.7,0.3,1.4,1,1.6c0.7,0.2,1.4-0.3,1.6-1
			c0-0.2,0.1-0.4,0-0.6C11.7,35.4,11.1,33.7,11.1,33.7z"/>
		<path class="st0" d="M20.7,27.3c0,0-1.3,1.3-1.7,1.6c-0.1,0.2-0.2,0.3-0.3,0.5c-0.2,0.7,0.3,1.4,1,1.6c0.7,0.2,1.4-0.3,1.6-1
			c0-0.2,0.1-0.4,0-0.6C21.3,29,20.7,27.3,20.7,27.3z"/>
		<path class="st0" d="M19.1,33.6c0,0-1.3,1.3-1.7,1.6c-0.1,0.2-0.2,0.3-0.3,0.5c-0.2,0.7,0.3,1.4,1,1.6c0.7,0.2,1.4-0.3,1.6-1
			c0-0.2,0.1-0.4,0-0.6C19.7,35.3,19.1,33.6,19.1,33.6z"/>
		<path class="st0" d="M28.7,27.2c0,0-1.3,1.3-1.7,1.6c-0.1,0.2-0.2,0.3-0.3,0.5c-0.2,0.7,0.3,1.4,1,1.6c0.7,0.2,1.4-0.3,1.6-1
			c0-0.2,0.1-0.4,0-0.6C29.2,28.9,28.7,27.2,28.7,27.2z"/>
		<path class="st0" d="M27.1,33.5c0,0-1.3,1.3-1.7,1.6c-0.1,0.2-0.2,0.3-0.3,0.5c-0.2,0.7,0.3,1.4,1,1.6c0.7,0.2,1.4-0.3,1.6-1
			c0-0.2,0.1-0.4,0-0.6C27.6,35.2,27.1,33.5,27.1,33.5z"/>
	</g>
	<rect class="st1" width="40" height="40"/>
</g>
</svg>
