<?xml version="1.0" encoding="utf-8"?>
<!-- Generator: Adobe Illustrator 22.1.0, SVG Export Plug-In . SVG Version: 6.00 Build 0)  -->
<svg version="1.1" id="_x32_" xmlns="http://www.w3.org/2000/svg" xmlns:xlink="http://www.w3.org/1999/xlink" x="0px" y="0px"
	 viewBox="0 0 40 40" style="enable-background:new 0 0 40 40;" xml:space="preserve">
<style type="text/css">
	.st0{fill:#FFFFFF;}
	.st1{fill:none;}
</style>
<g>
	<g>
		<path class="st0" d="M36.4,13.6c-0.2-0.6-0.5-1-1-1.2s-0.9-0.2-1.3,0c-0.4,0.2-0.7,0.6-0.8,1c-0.1,0.4-0.2,0.8,0,1.2
			c0.3,0.8,0.4,1.6,0.5,2.5c0,0.8,0,1.7-0.2,2.5c-0.4,1.7-1.3,3.2-2.5,4.5c-1.2,1.2-2.8,2.1-4.5,2.5c-0.9,0.2-1.8,0.3-2.6,0.2
			c-0.9,0-1.8-0.2-2.6-0.5c-0.3-0.1-0.6-0.1-0.8,0c-0.3,0.1-0.5,0.3-0.6,0.5c-0.1,0.3-0.1,0.6,0,0.8c0.1,0.3,0.4,0.5,0.7,0.6
			c1,0.4,2.1,0.7,3.2,0.8c1.1,0.1,2.2,0.1,3.3-0.1c2.2-0.4,4.2-1.4,5.9-2.9c1.7-1.5,2.9-3.5,3.5-5.6c0.3-1.1,0.5-2.2,0.5-3.3
			C36.9,15.8,36.8,14.7,36.4,13.6z"/>
		<path class="st0" d="M6.2,23c0-0.9,0-1.7,0.2-2.5c0.4-1.7,1.3-3.2,2.5-4.5c1.2-1.2,2.8-2.1,4.5-2.5c0.9-0.2,1.8-0.3,2.6-0.2
			c0.9,0,1.8,0.2,2.6,0.5c0.3,0.1,0.6,0.1,0.8,0c0.3-0.1,0.5-0.3,0.6-0.5c0.1-0.3,0.1-0.6,0-0.8c-0.1-0.3-0.4-0.5-0.7-0.6
			c-1-0.4-2.1-0.7-3.2-0.8S14.1,11,13,11.2c-2.2,0.4-4.2,1.4-5.9,2.9c-1.7,1.5-2.9,3.5-3.5,5.6c-0.3,1.1-0.5,2.2-0.5,3.3
			c0,1.1,0.2,2.3,0.5,3.4c0.2,0.6,0.5,1,1,1.2c0.4,0.2,0.9,0.2,1.3,0c0.4-0.2,0.7-0.6,0.8-1c0.1-0.4,0.2-0.8,0-1.2
			C6.4,24.7,6.2,23.8,6.2,23z"/>
		<path class="st0" d="M22,5.7C23.6,6,25.2,6.8,26.4,8c1.2,1.2,2.2,2.7,2.6,4.4c0.4,1.7,0.4,3.5-0.1,5.2c-0.3,0.8-0.6,1.7-1.1,2.4
			c-0.5,0.7-1.1,1.4-1.7,2c-0.2,0.2-0.4,0.4-0.4,0.7s0,0.6,0.1,0.8s0.4,0.4,0.7,0.4s0.6-0.1,0.9-0.3c0.9-0.7,1.6-1.5,2.3-2.4
			c0.6-0.9,1.2-1.9,1.5-2.9c0.8-2.1,0.9-4.4,0.4-6.5c-0.5-2.2-1.5-4.2-3.1-5.9c-0.8-0.8-1.7-1.5-2.7-2.1c-1-0.6-2.1-1-3.2-1.3
			c-0.6-0.1-1.1,0-1.5,0.2c-0.4,0.3-0.6,0.6-0.7,1.1c0,0.4,0.2,0.9,0.4,1.2C21.2,5.4,21.5,5.6,22,5.7z"/>
		<path class="st0" d="M18,34.3c-1.6-0.3-3.2-1.1-4.5-2.3c-1.2-1.2-2.2-2.7-2.6-4.4c-0.4-1.7-0.4-3.5,0.1-5.2
			c0.3-0.8,0.6-1.7,1.1-2.4c0.5-0.7,1.1-1.4,1.7-2c0.2-0.2,0.4-0.4,0.4-0.7c0.1-0.3,0-0.6-0.1-0.8s-0.4-0.4-0.7-0.4
			c-0.3,0-0.6,0.1-0.9,0.3c-0.9,0.7-1.6,1.5-2.3,2.4c-0.6,0.9-1.2,1.9-1.5,2.9c-0.8,2.1-0.9,4.4-0.4,6.5c0.5,2.2,1.5,4.2,3.1,5.9
			c0.8,0.8,1.7,1.5,2.7,2.1s2,1,3.2,1.3c0.6,0.1,1.1,0,1.5-0.2c0.4-0.3,0.6-0.6,0.7-1.1c0-0.4-0.2-0.9-0.4-1.2
			C18.8,34.6,18.5,34.4,18,34.3z"/>
		<path class="st0" d="M6.3,11.5c0.4,0.2,0.8,0.3,1.2,0.2c0.4-0.1,0.8-0.3,1.1-0.6c0.6-0.6,1.2-1.2,1.9-1.6C11.2,9,12,8.7,12.8,8.4
			c1.6-0.5,3.4-0.5,5.1-0.1c1.7,0.5,3.2,1.4,4.4,2.7c0.6,0.6,1.1,1.4,1.5,2.2c0.4,0.8,0.7,1.6,0.9,2.5c0,0.3,0.2,0.5,0.4,0.7
			c0.2,0.2,0.5,0.3,0.8,0.3s0.5-0.2,0.7-0.4c0.2-0.2,0.2-0.6,0.2-1c-0.2-1.1-0.5-2.1-0.9-3.1s-1-1.9-1.8-2.8c-1.4-1.7-3.3-3-5.5-3.7
			c-2.1-0.7-4.4-0.8-6.6-0.2C11,5.9,9.9,6.3,8.9,6.9C7.9,7.4,7,8.1,6.2,9c-0.4,0.4-0.6,1-0.6,1.4C5.7,10.9,5.9,11.3,6.3,11.5z"/>
		<path class="st0" d="M33.7,28.5c-0.4-0.2-0.8-0.3-1.2-0.2c-0.4,0.1-0.8,0.3-1.1,0.6c-1.1,1.3-2.6,2.2-4.2,2.7
			c-1.6,0.5-3.4,0.5-5.1,0.1c-1.7-0.5-3.2-1.4-4.4-2.7c-0.6-0.6-1.1-1.4-1.5-2.2c-0.4-0.8-0.7-1.6-0.9-2.5c0-0.3-0.2-0.5-0.4-0.7
			c-0.2-0.2-0.5-0.3-0.8-0.3c-0.3,0-0.5,0.2-0.7,0.4c-0.2,0.2-0.2,0.6-0.2,1c0.2,1.1,0.5,2.1,0.9,3.1c0.5,1,1,1.9,1.8,2.8
			c1.4,1.7,3.3,3,5.5,3.7c2.1,0.7,4.4,0.8,6.6,0.2c2.2-0.5,4.2-1.7,5.8-3.3c0.4-0.4,0.6-1,0.6-1.4C34.3,29.1,34.1,28.7,33.7,28.5z"
			/>
	</g>
	<rect class="st1" width="40" height="40"/>
</g>
</svg>
