<svg xmlns="http://www.w3.org/2000/svg" viewBox="0 0 45 45"><defs><style>.cls-1{fill:#011634;}.cls-2{fill:none;}</style></defs><title>icon_phone</title><g id="圖層_2" data-name="圖層 2"><g id="圖層_1-2" data-name="圖層 1"><path class="cls-1" d="M29.94,3.3H15.06a3.93,3.93,0,0,0-3.92,3.92V37.78a3.93,3.93,0,0,0,3.92,3.92H29.94a3.93,3.93,0,0,0,3.92-3.92V7.22A3.93,3.93,0,0,0,29.94,3.3ZM22.5,40.13c-1.51,0-2.74-.88-2.74-2s1.23-2,2.74-2,2.74.88,2.74,2S24,40.13,22.5,40.13Zm8.23-5.88H14.27V8.4H30.73Z"/><rect class="cls-2" width="45" height="45"/></g></g></svg>