<svg xmlns="http://www.w3.org/2000/svg" xmlns:xlink="http://www.w3.org/1999/xlink" viewBox="0 0 216.49 51.11"><defs><style>.cls-1{fill:none;}.cls-2{fill:#006783;}.cls-3{clip-path:url(#clip-path);}.cls-4{fill:url(#linear-gradient);}.cls-5,.cls-6{fill:#006784;}.cls-6{stroke:#006784;stroke-width:0.3px;}</style><clipPath id="clip-path"><path class="cls-1" d="M.08,31.59c0,.45.36,1.33,1,1.33a7.45,7.45,0,0,0,2.77.64A8,8,0,0,1,5,33.65a124.15,124.15,0,0,0,13.4,1.13,62.62,62.62,0,0,0,8-.54c2-.26,77.86-.26,82.06-.26,7.51,0,15.24.06,30.7-.1,70.21-.7,77.27-.46,77.27-1.43,0-.71-3.09-.36-22.09-.69-53.23-.93-159.77-.16-172.8-.29-4.86,0-12.51-.33-16-.33l-.43,0c-.87-.08-2.16-.2-4-.2-.53,0-1,.14-1,.63"/></clipPath><linearGradient id="linear-gradient" x1="3649.99" y1="-2166.19" x2="3650.34" y2="-2166.19" gradientTransform="matrix(618.3, 0, 0, -618.3, -2256792.77, -1339325.68)" gradientUnits="userSpaceOnUse"><stop offset="0" stop-color="#dc1f26"/><stop offset="0.49" stop-color="#fdbc11"/><stop offset="1" stop-color="#00b5dc"/></linearGradient></defs><title>icon_logo</title><g id="圖層_2" data-name="圖層 2"><g id="圖層_1-2" data-name="圖層 1"><polygon class="cls-2" points="207.69 25.18 207.13 25.18 207.13 24.99 208.47 24.99 208.47 25.18 207.91 25.18 207.91 26.66 207.69 26.66 207.69 25.18"/><polygon class="cls-2" points="208.72 24.99 209.02 24.99 209.55 26.39 210.08 24.99 210.38 24.99 210.38 26.66 210.17 26.66 210.17 25.27 210.17 25.27 209.64 26.66 209.45 26.66 208.93 25.27 208.93 25.27 208.93 26.66 208.72 26.66 208.72 24.99"/><g class="cls-3"><rect class="cls-4" y="30.96" width="216.49" height="3.82"/></g><path class="cls-5" d="M165.24,9.47a1.26,1.26,0,0,0-1.08-1.07c-.64,0-1.68.8-1.68,1.44v0c0,.08,0,.2,0,.47s0,.64,0,1.13,0,.86,0,1.11c0,.41,0,1.12,0,1.81,0,1.07,0,2.42,0,3.57,0,9,.06,9.53,1.22,9.53,1,0,1.16-1.08,1.16-3.08,0-7,.16-12,.26-13.56,0-.42,0-.7,0-1S165.24,9.61,165.24,9.47Z"/><path class="cls-5" d="M95,4.08c-.16,0-.33,0-1.66,2.56a16.37,16.37,0,0,0-1.29,2.87c0,.59.9.93,1.15.93s1.52-.56,1.52-1a1.79,1.79,0,0,0,0-.36,1,1,0,0,1,0-.17,24.28,24.28,0,0,1,.74-2.61,9.82,9.82,0,0,0,.44-1.5C95.89,4.32,95.29,4.08,95,4.08Z"/><path class="cls-5" d="M85.4,24l-.23-.28-1.86-1.94-.08,0L83,21.45c-2-1.95-2.6-2.61-7.35-9.36a4,4,0,0,1-.23-.34l-.09-.09L73.8,9.52h0A.88.88,0,0,0,73,9.26h-.07c-.59,0-1.67.86-1.67,1.39,0,.33.25.56.57.86.11.1.23.21.35.34a1.46,1.46,0,0,1,.17.7c0,1-4.88,10.36-7,13.54-.14.22-.29.42-.43.6a1.93,1.93,0,0,0-.53,1.06c0,.57.63.95,1.68,1h0l.1,0,.06,0a1.16,1.16,0,0,0,.7-.53l0-.05a.16.16,0,0,1,0-.06l.08-.13,0-.1a1.07,1.07,0,0,1,.06-.17l2.83-5.33a2,2,0,0,1,2.25-1.29h7.22l3.19,4.05.81.9.33.27a1.84,1.84,0,0,0,.22.17l.14.11h.09a1.12,1.12,0,0,0,.4.07A1.31,1.31,0,0,0,86,25.26a1.44,1.44,0,0,0-.28-.85Zm-7.58-5.1a28,28,0,0,1-3.48.14,14.22,14.22,0,0,1-2.52-.1v0a4.11,4.11,0,0,1,.38-.88L74,14.27Z"/><path class="cls-5" d="M90.29,9.09l0-.11-.1-.05-.11-.06h0a1.42,1.42,0,0,0-1-.31,1.47,1.47,0,0,0-1.4,1.52v.17a1.09,1.09,0,0,1,0,.17,3.74,3.74,0,0,0,0,.56V11a3.3,3.3,0,0,1,0,.69v.09a4.19,4.19,0,0,1,0,.53c0,.35,0,.71,0,1.14,0,.58,0,1.31,0,2.33,0,11.51.44,13.61,1.3,13.61s1.17-1,1.17-2.77c0-6.54.06-14.46.16-15.85a.36.36,0,0,0,0-.15.22.22,0,0,1,0-.08V10.5h0a.5.5,0,0,1,0-.12c0-.09,0-.14,0-.19V10A2.33,2.33,0,0,0,90.29,9.09Z"/><path class="cls-5" d="M28.65,18.87c0-.64-.43-.72-.75-.72h-.64c-.61,0-1.27,0-1.66,0l.13-8.5,0-.25h0a1.3,1.3,0,0,0-1.24-1,1.27,1.27,0,0,0-1.22.8h-.06l.05,5.7v.25c0,.15,0,.3,0,.45,0,.74,0,1.6-.05,2.54H16.33c.05-2,.07-10.67.08-14v-3A1.27,1.27,0,0,0,15.13,0a1.29,1.29,0,0,0-1.21.73h-.08l0,2.58s0,0,0,.06v.12c0,1.17.09,10.17.1,14.9-1.13.11-2.22.34-2.22,1.06,0,1,.69,1.14,1.37,1.14H14c0,1.24-.05,2.43-.09,3.58s-.08,2.08-.08,3.06c0,.25,0,1,.81,1,1,0,1.52-.59,1.52-1.66v-5a2.33,2.33,0,0,0,0-.53,2.82,2.82,0,0,1,0-.52c.59-.1,2-.18,3.4-.27s2.61-.16,3.57-.26l.19,17.72c0,.84.19,1.27,1,1.27s1.14-1.44,1.14-2l.13-16.81,1.27.09.84.06C28.38,20.32,28.65,19.3,28.65,18.87Z"/><path class="cls-5" d="M99.23,9.46a1.27,1.27,0,0,0-1.08-1.07c-.64,0-1.68.81-1.68,1.45h0c0,.08,0,.21,0,.48s0,.61,0,1.12v0c0,.4,0,.85,0,1.1,0,.41,0,1.12,0,1.82,0,1.08,0,2.42,0,3.56,0,9,.06,9.53,1.21,9.53,1,0,1.17-1.08,1.17-3.08,0-7,.16-12,.26-13.56,0-.43,0-.71,0-1S99.23,9.61,99.23,9.46Z"/><path class="cls-5" d="M47.27,24.43,47,24.14l-1.86-2.06-.08,0-.26-.27C42.9,19.72,42.24,19,37.5,11.9c-.08-.11-.16-.24-.23-.36l-.1-.09L35.73,9.27l-.06-.08h0A.88.88,0,0,0,35,8.9h-.19c-.64.05-1.67.94-1.67,1.45,0,.34.25.59.57.9.11.1.23.22.35.35a1.6,1.6,0,0,1,.17.76c0,1.08-3.4,8.3-5.51,11.7-.15.24-.3.45-.43.64a2,2,0,0,0-.52,1.1c0,.59.64,1,1.69,1.06h.07l0,0,.07,0a1.27,1.27,0,0,0,.71-.58v0a.25.25,0,0,0,0-.07l.09-.14,0-.09a1.24,1.24,0,0,1,.06-.2l1.39-3a2,2,0,0,1,2.25-1.36h7.21l3.19,4.27.81.95.32.27A1.26,1.26,0,0,0,46,27l.11.1h.08a1.19,1.19,0,0,0,.41.08,1.36,1.36,0,0,0,1.26-1.43,1.55,1.55,0,0,0-.28-.9ZM39.7,19a25.53,25.53,0,0,1-3.49.15,15.2,15.2,0,0,1-2.53-.09v-.05a3.61,3.61,0,0,1,.38-.94l1.82-3.94Z"/><path class="cls-5" d="M68.72,15h0c.83-1.31,1.17-1.85,1.17-2.19s-.27-1.16-1.55-1.36a.45.45,0,0,0-.16,0h0l-.06,0a1.42,1.42,0,0,0-.73.54,1.2,1.2,0,0,0-.21.38.69.69,0,0,1-.07.15l0,.07a36.38,36.38,0,0,1-2.5,5c-1,1.76-2,3.57-2.53,4.81-2.31-4.84-3-7.51-3-7.95s-1.08-.77-1.3-.77c-.43,0-.66.25-1,1a66.72,66.72,0,0,1-4.31,7.41l-.42.67c-1-2-2.84-6.73-4-10.11L46.92,9.08l0-.07a.9.9,0,0,0-1.33-.33c-.52.26-1.61,1-1.61,1.53a2.26,2.26,0,0,0,.46,1.1,13.8,13.8,0,0,1,.76,1.42,109.33,109.33,0,0,1,4.25,10.49l.74,2.86a.82.82,0,0,0,.24.46v0l.27.19h0a1.49,1.49,0,0,0,.71.18,1.16,1.16,0,0,0,1.21-.83v0c.44-1.43,3.17-5.57,4.85-7.74,1.16,1.48,2.51,5.64,3,7.4a.88.88,0,0,0,.13.3,1.25,1.25,0,0,0,1.16.64,1.2,1.2,0,0,0,1.2-.76v0c.23-.92,1.17-2.84,3.36-6.83C67.19,17.37,68.07,16,68.72,15Z"/><path class="cls-5" d="M122,6.94a.63.63,0,0,0-.69-.66c-1,0-2,.06-3.06.11s-2,.11-3,.11c-2.22,0-3.48-.1-4.31-.16l-.82-.06a1,1,0,0,0-.75.29,1.2,1.2,0,0,0-.36.81c0,.65.33,1.33.94,1.33.2,0,.39,0,.57,0l.48,0h2.9c.14,1.56.16,3.12.16,4.59,0,3.85-.33,14.2-.37,14.81a.93.93,0,0,0,.51.77,1.49,1.49,0,0,0,.81.26,1.1,1.1,0,0,0,.51-.13c.33-.18.73-.65.73-1.85,0-3,.16-15.88.48-18.56h.36c1.05,0,2.49-.06,3.44-.15A2.1,2.1,0,0,0,122,6.94Z"/><path class="cls-5" d="M126,10.8c-5,0-7.35,4.27-7.35,8.23a7.55,7.55,0,0,0,1.94,5.38,5.84,5.84,0,0,0,4.16,1.83c3.48,0,7-2.69,7-7.82A8.9,8.9,0,0,0,130,12.66,5.08,5.08,0,0,0,126,10.8Zm3.37,8c0,4.92-3.25,5.17-3.9,5.17-3.52,0-4.28-4.27-4.28-5.33,0-3.87,2.22-5.64,4.28-5.64C129,13,129.35,17,129.35,18.75Z"/><path class="cls-5" d="M146.73,11.44h0c-.65-.45-.95-.6-1.17-.6-.74,0-.74.88-.74,2.21,0,.19,0,.44,0,.72,0,2.07.16,6.38-1.83,8.43a3.88,3.88,0,0,1-2.87,1.12c-4.12,0-5-5.33-5-9.8,0-.5,0-1,.05-1.41s0-.6,0-.83c0-.71-.33-1-.64-1a3.92,3.92,0,0,0-1.42.45,1.14,1.14,0,0,0-.57,1A29.52,29.52,0,0,0,134,20c.88,2.64,2.55,5.8,5.5,5.8,7.46,0,7.68-12,7.68-13.42A1,1,0,0,0,146.73,11.44Z"/><path class="cls-5" d="M160,23.82l-.14.15h0l.14-.15a45.47,45.47,0,0,1-5-5.21,1.23,1.23,0,0,0-.41-.34l1.36-.62a4.64,4.64,0,0,0,2.37-4.39c0-2.47-1.41-4-3.67-4a8.77,8.77,0,0,0-4.55,1.58c-.48.31-.39.9-.31,1.52,0,.22.07.47.08.72.08,1.31.17,3.53.17,5.48,0,1.25-.25,6.3-.3,6.79a1.36,1.36,0,0,0,.28,1.12,1.45,1.45,0,0,0,1.13.38h.3a.76.76,0,0,0,.8-.85v-4.5c0-.77,0-1.39,0-1.9a1.08,1.08,0,0,1,.75.4l3,3.23c.89,1,1.44,1.65,1.89,2.2l.53.64a1.18,1.18,0,0,0,1,.51h0a2.68,2.68,0,0,0,1.23-.54,1.15,1.15,0,0,0,.44-.91C161.15,24.87,161,24.68,160,23.82Zm-7.72-7.52a23.62,23.62,0,0,1,.31-4.16,2,2,0,0,1,1.57-.73c1.39,0,1.6,1.4,1.6,2.24,0,2.33-2.95,3.7-3.27,3.78a.56.56,0,0,1-.21,0Z"/><path class="cls-5" d="M202.64,26.61l-.18.11h0l.18-.12a11.2,11.2,0,0,1-.76-1.41,106.73,106.73,0,0,1-4.25-10.49l-.74-2.86a.88.88,0,0,0-.27-.5l-.09-.07,0,0,0,0h0a1.43,1.43,0,0,0-.76-.21,1.16,1.16,0,0,0-1.21.83v0c-.44,1.43-3.17,5.56-4.85,7.74-1.17-1.48-2.51-5.64-3-7.41a.93.93,0,0,0-.13-.29,1.26,1.26,0,0,0-1.16-.65,1.21,1.21,0,0,0-1.2.76l0,0c-.23.92-1.17,2.84-3.35,6.83-.92,1.68-1.81,3.06-2.45,4.07-.84,1.32-1.18,1.86-1.18,2.2s.28,1.16,1.55,1.36a.42.42,0,0,0,.16,0h.06l.05,0a1.43,1.43,0,0,0,.73-.55,1.11,1.11,0,0,0,.21-.38.61.61,0,0,1,.07-.14l0-.08a37.83,37.83,0,0,1,2.5-5c1-1.75,2-3.57,2.52-4.8,2.32,4.84,3,7.51,3,8s1.08.77,1.3.77c.43,0,.66-.25,1-1a66.76,66.76,0,0,1,4.31-7.42l.42-.66c1,2,2.84,6.73,4,10.11l1.1,3.55,0,.08a.88.88,0,0,0,.8.49.85.85,0,0,0,.52-.16c.52-.26,1.62-1,1.62-1.53A2.32,2.32,0,0,0,202.64,26.61Z"/><path class="cls-5" d="M173.62,9.21a2.7,2.7,0,0,0-.63.07h-.06a8.1,8.1,0,0,0-1.79.12h0a5.09,5.09,0,0,0-3.22,2.49,5,5,0,0,0-.15,3.75A5.1,5.1,0,0,0,169,17.45a13.78,13.78,0,0,0,1.47,1c1.57,1,3.51,2.22,3.14,4.19a2.24,2.24,0,0,1-2.33,1.65,2.76,2.76,0,0,1-.51,0,3.45,3.45,0,0,1-1.27-.56l-.28-.18,0,0,0,0a2.86,2.86,0,0,0-1.35-1.13,1.13,1.13,0,0,0-.32,0,.89.89,0,0,0-.9.65,1.44,1.44,0,0,0,.26,1.18l0,.06a1.54,1.54,0,0,0,.17.34,6.27,6.27,0,0,0,4.71,2.16,3.92,3.92,0,0,0,1-.12h0a3.52,3.52,0,0,0,2.6-1.51,4.8,4.8,0,0,0,.76-3.08c-.73-2.85-2.39-3.79-4-4.7l-.43-.24a3.9,3.9,0,0,1-1.82-2.73,2.57,2.57,0,0,1,.62-1.93,2.63,2.63,0,0,1,1.93-.67,7,7,0,0,1,1.66.23l0,0c.28.15.55.32.77.46l.12.08a1.35,1.35,0,0,0,.73.31h0a.6.6,0,0,0,.49-.27,1.8,1.8,0,0,0,.2-1.36A2.9,2.9,0,0,0,173.62,9.21Z"/><path class="cls-6" d="M86,43.88c.22,0,.33-.27.49-.27s.14,0,.16.15.48,1.61.48,1.73-.13.08-.19.08-.14,0-.21-.11a2,2,0,0,0-2.23-1.19c-.64,0-.64,0-.64.67v3.92c0,1.42,0,1.54.72,1.54.3,0,.33,0,.33.27,0,.08,0,.12-.12.12l-1.68,0-1.68,0c-.1,0-.13,0-.13-.12,0-.25,0-.27.33-.27.7,0,.72-.12.72-1.54V44.94c0-.66,0-.67-.69-.67a2.19,2.19,0,0,0-2.19,1.19c-.07.11-.1.13-.22.13s-.18,0-.18-.12.46-1.41.48-1.62.06-.2.19-.2.23.23.71.23Z"/><path class="cls-6" d="M91.19,48.48c-.08,0-.14,0-.16.06A5.41,5.41,0,0,0,90.5,50c0,.2.12.39.52.39s.54,0,.54.19,0,.2-.14.2l-1.13,0-1,0c-.06,0-.11,0-.11-.16s.07-.22.35-.23.43-.36.63-.83a20.17,20.17,0,0,0,.76-1.92c.39-1.19,1.5-3.69,1.58-3.85s.2-.07.26-.07.23,0,.27.12c.45,1.15,2,5,2.46,6,.25.52.34.59.86.59.16,0,.16.09.16.19s0,.2-.12.2l-1.62,0c-1.08,0-1.49,0-1.56,0s-.11-.06-.11-.17,0-.22.41-.22.44,0,.44-.24-.56-1.41-.64-1.68ZM93.13,48l-1-2.5c-.13.37-.93,2.18-.93,2.42,0,0,0,.08.21.08Z"/><path class="cls-6" d="M100.86,45.52c0-1.16-.06-1.29-.85-1.29-.12,0-.25,0-.25-.11,0-.26,0-.27.18-.27.56,0,1.11,0,1.68,0s1.11,0,1.68,0c.16,0,.17,0,.17.27,0,.06-.12.11-.25.11-.79,0-.85.13-.85,1.29v3.34c0,1.42,0,1.54.72,1.54.3,0,.33,0,.33.27,0,.08,0,.12-.12.12l-1.68,0-1.68,0c-.1,0-.13,0-.13-.12,0-.25,0-.27.33-.27.7,0,.72-.12.72-1.54Z"/><path class="cls-6" d="M112.29,46a.85.85,0,0,0,.11-.36,3.17,3.17,0,0,0-.43-1.29.8.8,0,0,0-.36-.12c-.32,0-.32-.06-.32-.15s0-.23.17-.23c.49,0,1,0,1.48,0l1.45,0c.06,0,.09,0,.09.22s0,.16-.44.16a.34.34,0,0,0-.34.36c0,.34.91,3.11,1.08,3.73.1.33.12.4.16.4s.06,0,.16-.27c1.3-3.3,1.36-3.65,1.36-3.82,0-.4-.35-.4-.56-.4s-.36,0-.36-.18.06-.2.2-.2c.41,0,.78,0,1.12,0s.56,0,1.12,0c.08,0,.11,0,.11.19s-.06.15-.39.19c-.17,0-.49.06-.73.64-.93,2.16-1.77,4.27-2.32,5.74-.11.28-.18.31-.34.31s-.32-.41-.35-.51c-.5-1.42-.89-2.75-1.29-4,0-.08,0-.1-.08-.1s-.06,0-.16.23c-.78,1.68-1.72,3.62-2.08,4.2,0,.09-.08.16-.21.16s-.24-.09-.31-.25c-.42-1.07-1.49-5-1.83-6,0-.09-.15-.48-.46-.48s-.43,0-.43-.2,0-.18.14-.18c.49,0,1,0,1.45,0s1,0,1.54,0c.1,0,.11.1.11.19s0,.19-.49.19a.27.27,0,0,0-.28.3c0,.33,1,3.78,1.15,4.12,0,.05,0,.21.12.21s.06,0,.16-.28Z"/><path class="cls-6" d="M121.84,48.48c-.08,0-.14,0-.17.06a5.73,5.73,0,0,0-.52,1.47c0,.2.11.39.51.39s.55,0,.55.19,0,.2-.14.2l-1.14,0-1,0c-.06,0-.1,0-.1-.16s.06-.22.35-.23.42-.36.63-.83.54-1.26.76-1.92c.38-1.19,1.49-3.69,1.58-3.85s.19-.07.25-.07.24,0,.27.12c.46,1.15,2,5,2.46,6,.25.52.34.59.87.59.15,0,.15.09.15.19s0,.2-.11.2l-1.63,0c-1.08,0-1.48,0-1.55,0s-.11-.06-.11-.17,0-.22.41-.22.44,0,.44-.24-.57-1.41-.64-1.68Zm1.94-.44-1-2.5c-.14.37-.93,2.18-.93,2.42,0,0,0,.08.21.08Z"/><path class="cls-6" d="M131.79,45.26c0,.82,0,3,0,3.25,0,1.83,0,1.86.94,1.89.22,0,.24,0,.24.23s0,.16-.15.16l-1.18,0-1.19,0c-.15,0-.15-.08-.15-.19s0-.19.24-.2c.68,0,.76,0,.8-.81,0-.39.08-3.2.08-4.37a.7.7,0,0,0-.23-.58c-.38-.38-.45-.39-.75-.41s-.31,0-.31-.19,0-.19.13-.19l1,0c.27,0,.95,0,1.26,0,.08,0,.15.07.21.13,1.44,1.57,2.85,3.16,4.36,4.64,0-1.08.08-2.1.08-2.85,0-1.41-.36-1.54-1-1.54-.19,0-.2,0-.2-.19s0-.19.12-.19l1.27,0,1.19,0c.09,0,.12,0,.12.17s0,.21-.17.21c-.63,0-.83.2-.88.9s-.18,4.46-.18,5.61c0,.22-.06.22-.3.22,0,0-.07,0-.34-.32Z"/></g></g></svg>