<svg xmlns="http://www.w3.org/2000/svg" viewBox="0 0 25 45"><defs><style>.cls-1{fill:#fff;}.cls-2{fill:none;}</style></defs><title>icon_ig</title><g id="圖層_2" data-name="圖層 2"><g id="圖層_1-2" data-name="圖層 1"><path class="cls-1" d="M21.84,19.45a18.71,18.71,0,0,0-.21-2.59,4.73,4.73,0,0,0-3.3-3.78,9.27,9.27,0,0,0-2.91-.37H9.85a15.13,15.13,0,0,0-2.6.22A4.73,4.73,0,0,0,3.5,16.2a9,9,0,0,0-.37,2.92v5.56a16,16,0,0,0,.21,2.6,4.73,4.73,0,0,0,3.3,3.78,9.27,9.27,0,0,0,2.91.37h5.57a17.43,17.43,0,0,0,2.6-.22A4.71,4.71,0,0,0,21.05,29a6.19,6.19,0,0,0,.79-3.1h0C21.87,24.61,21.9,20.32,21.84,19.45ZM20.1,26.23A3.52,3.52,0,0,1,18.84,29a3.43,3.43,0,0,1-1.84.71c-.72.07-1.44.12-2.15.12H10.13a14.65,14.65,0,0,1-2.56-.2,3.12,3.12,0,0,1-2.65-3,29.42,29.42,0,0,1-.12-3.25c0-1.7,0-3.4,0-5.1a6.11,6.11,0,0,1,.2-1.34,3.08,3.08,0,0,1,2.64-2.36,17.34,17.34,0,0,1,2.39-.16h4.77a15.28,15.28,0,0,1,2.52.19,3.2,3.2,0,0,1,2.67,3c.09.72.12,1.42.14,2.16S20.17,24.8,20.1,26.23Z"/><path class="cls-1" d="M12.5,17.24a4.83,4.83,0,1,0,0,9.65h.11a4.77,4.77,0,0,0,4.73-4.8A4.83,4.83,0,0,0,12.5,17.24Zm0,8a3.13,3.13,0,1,1,0-6.26,3.18,3.18,0,0,1,3.12,3.18A3.14,3.14,0,0,1,12.47,25.2Z"/><path class="cls-1" d="M17.52,15.89h0A1.13,1.13,0,0,0,16.36,17a1.15,1.15,0,0,0,1.13,1.14v0h0a1.13,1.13,0,0,0,1.11-1.14V17A1.11,1.11,0,0,0,17.52,15.89Z"/><rect class="cls-2" width="25" height="45"/></g></g></svg>