<?xml version="1.0" encoding="utf-8"?>
<!-- Generator: Adobe Illustrator 22.1.0, SVG Export Plug-In . SVG Version: 6.00 Build 0)  -->
<svg version="1.1" id="_x32_" xmlns="http://www.w3.org/2000/svg" xmlns:xlink="http://www.w3.org/1999/xlink" x="0px" y="0px"
	 viewBox="0 0 40 40" style="enable-background:new 0 0 40 40;" xml:space="preserve">
<style type="text/css">
	.st0{fill:#FFFFFF;}
	.st1{fill:none;}
</style>
<g>
	<g>
		<path class="st0" d="M34.8,11.4c-1.3-1.4-3.1-2.3-5.1-2.7c-0.6-1.6-1.6-3-2.9-4.1c-1.6-1.3-3.8-2.2-6-2.2c-2.3,0-4.4,0.8-6.1,2.2
			c-1.2,1-2.2,2.4-2.8,3.9c-2.5,0-4.9,1.1-6.5,2.7c-1.7,1.7-2.7,4-2.7,6.6s1,4.9,2.7,6.6c1.2,1.2,2.8,2.1,4.5,2.5l3-3.4
			c-0.3,0-0.7,0-1,0c-1.6,0-3-0.6-4-1.6c-1-1-1.6-2.4-1.6-4s0.6-3,1.6-4c1-1,2.4-1.6,4-1.6c0.3,0,0.6,0,1,0.1l1.8,0.3l0.3-1.8
			c0.3-1.3,1-2.5,2-3.4c1-0.8,2.3-1.4,3.8-1.4c1.4,0,2.7,0.5,3.7,1.3c1,0.8,1.8,2,2,3.3l0.3,1.4l1.4,0c1.5,0,2.9,0.7,3.9,1.7
			c1,1,1.6,2.4,1.6,3.9c0,1.6-0.6,3-1.6,4c-1,1-2.4,1.6-4,1.6c-0.2,0-0.5,0-0.8,0l-3.7,3.7c1.8,0,3.4,0,4.4,0c2.6,0,4.9-1,6.6-2.7
			c1.7-1.7,2.7-4,2.7-6.6C37.4,15.4,36.4,13.1,34.8,11.4z"/>
		<polygon class="st0" points="25.2,23 19.7,23 22.2,15.9 11.7,27.9 14.6,28.1 10.6,37.5 		"/>
	</g>
	<rect class="st1" width="40" height="40"/>
</g>
</svg>
