<?xml version="1.0" encoding="utf-8"?>
<!-- Generator: Adobe Illustrator 22.1.0, SVG Export Plug-In . SVG Version: 6.00 Build 0)  -->
<svg version="1.1" id="_x32_" xmlns="http://www.w3.org/2000/svg" xmlns:xlink="http://www.w3.org/1999/xlink" x="0px" y="0px"
	 viewBox="0 0 40 40" style="enable-background:new 0 0 40 40;" xml:space="preserve">
<style type="text/css">
	.st0{fill:#FFFFFF;}
	.st1{fill:none;}
</style>
<g>
	<g>
		<path class="st0" d="M6.4,20.9c0.3-0.3,0.7-0.6,1.1-0.9c-1.1-1.1-1.8-2.6-1.8-4.3c0-3.4,2.7-6.1,6.1-6.1c2.3,0,4.3,1.3,5.4,3.2
			c0.8-0.5,1.7-1,2.6-1.3l0-0.1c0-0.1,0-0.2,0-0.3c0-0.1-0.1-0.1-0.2-0.2l-2.3-0.4c-0.1,0-0.2-0.1-0.3-0.3l-0.4-2.3
			c0-0.1-0.1-0.2-0.2-0.2c-0.1,0-0.2-0.1-0.3,0l-2.2,0.8c-0.1,0-0.3,0-0.4-0.1L12,6.6c-0.1-0.1-0.2-0.1-0.3-0.1s-0.2,0-0.3,0.1
			L10,8.4C9.9,8.5,9.7,8.5,9.6,8.5L7.4,7.7c-0.1,0-0.2,0-0.3,0C7,7.8,7,7.8,7,7.9l-0.4,2.3c0,0.1-0.1,0.2-0.3,0.3L4,10.9
			c-0.1,0-0.2,0.1-0.2,0.2c0,0.1-0.1,0.2,0,0.3l0.8,2.2c0,0.1,0,0.3-0.1,0.4l-1.8,1.5c-0.1,0.1-0.1,0.2-0.1,0.3s0,0.2,0.1,0.3
			l1.8,1.5c0.1,0.1,0.1,0.2,0.1,0.4L3.7,20c0,0.1,0,0.2,0,0.3c0,0.1,0.1,0.1,0.2,0.2l2.3,0.4C6.3,20.9,6.3,20.9,6.4,20.9z"/>
		<path class="st0" d="M31.6,21.7L31.6,21.7c0-0.1,0-0.2,0-0.3c0-4.8-3.9-8.6-8.6-8.6c-4.5,0-8.1,3.4-8.6,7.7
			c-0.6-0.2-1.3-0.3-2-0.3c-3.7,0-6.7,3-6.7,6.7c0,3.7,3,6.7,6.7,6.7h19.1c3.3,0,5.9-2.7,5.9-5.9C37.5,24.3,34.8,21.7,31.6,21.7z"/>
	</g>
	<rect class="st1" width="40" height="40"/>
</g>
</svg>
