<svg xmlns="http://www.w3.org/2000/svg" viewBox="0 0 45 45"><defs><style>.cls-1{fill:#011634;}.cls-2{fill:none;}</style></defs><title>icon_name</title><g id="圖層_2" data-name="圖層 2"><g id="圖層_1-2" data-name="圖層 1"><path class="cls-1" d="M32.92,31.21c-4.83-1.76-6.37-3.24-6.37-6.42,0-1.91,1.47-1.29,2.12-4.78.27-1.45,1.57,0,1.82-3.33,0-1.32-.71-1.65-.71-1.65s.36-1.95.5-3.45c.18-1.87-1.08-6.71-7.78-6.71s-8,4.84-7.78,6.71c.14,1.5.5,3.45.5,3.45s-.71.33-.71,1.65c.25,3.31,1.55,1.88,1.82,3.33.65,3.49,2.12,2.87,2.12,4.78,0,3.18-1.54,4.66-6.37,6.42s-8,3.57-8,4.8v4.12H40.91V36C40.91,34.78,37.77,33,32.92,31.21Z"/><rect class="cls-2" width="45" height="45"/></g></g></svg>