<svg xmlns="http://www.w3.org/2000/svg" viewBox="0 0 135.76 135.76"><defs><style>.cls-1{fill:#011634;}</style></defs><title>icon_st04</title><g id="圖層_2" data-name="圖層 2"><g id="圖層_1-2" data-name="圖層 1"><path class="cls-1" d="M67.83,135.76A67.86,67.86,0,0,1,45.23,3.93a67.83,67.83,0,0,1,86.6,41.3h0a67.95,67.95,0,0,1-64,90.53ZM67.93,3A65,65,0,0,0,9.35,40a64.84,64.84,0,0,0,80.17,89A64.85,64.85,0,0,0,129,46.23h0A65,65,0,0,0,67.93,3Z"/><path class="cls-1" d="M34.19,86.76a.51.51,0,0,1,.23-.25.53.53,0,0,1,.2-.05l.14,0,1.24.34a.4.4,0,0,1,.24.2.36.36,0,0,1,0,.32A15.68,15.68,0,0,1,35,89.68a14.87,14.87,0,0,1-1.54,2,.47.47,0,0,1-.32.12.4.4,0,0,1-.31-.11,10.59,10.59,0,0,0-1.06-.81.32.32,0,0,1-.15-.27.34.34,0,0,1,.11-.24,8.91,8.91,0,0,0,1.41-1.6A10.52,10.52,0,0,0,34.19,86.76Zm4.13,6.94a.4.4,0,0,1,0-.3.36.36,0,0,1,.19-.23l1-.44a.47.47,0,0,1,.35,0,.54.54,0,0,1,.3.2,25.29,25.29,0,0,1,2.29,3.6.49.49,0,0,1,.05.19.39.39,0,0,1,0,.14.4.4,0,0,1-.21.25l-1.11.59a.39.39,0,0,1-.18,0,.3.3,0,0,1-.13,0,.4.4,0,0,1-.24-.22,4,4,0,0,0-.25-.51s0,0-.07,0c-1.93.14-4.45.29-7.58.47a.47.47,0,0,1-.32-.1.49.49,0,0,1-.16-.3l-.13-1a.42.42,0,0,1,.1-.3.35.35,0,0,1,.28-.14l1.25,0a.14.14,0,0,0,.09,0A24.43,24.43,0,0,0,35.56,91a.42.42,0,0,1,.22-.25.31.31,0,0,1,.21-.07.23.23,0,0,1,.11,0l1.32.31a.36.36,0,0,1,.24.19.35.35,0,0,1,0,.3,37.82,37.82,0,0,1-1.88,3.77s0,0,0,0c.79,0,1.93-.08,3.42-.16,0,0,0,0,0-.05C38.93,94.62,38.62,94.14,38.32,93.7ZM38,87.5a.34.34,0,0,1,0-.31A.37.37,0,0,1,38.2,87l1-.4a.47.47,0,0,1,.33,0,.49.49,0,0,1,.26.21,14.92,14.92,0,0,0,2.61,3.32.4.4,0,0,1,.1.28.38.38,0,0,1-.13.3,7.61,7.61,0,0,0-.92,1,.39.39,0,0,1-.27.13.29.29,0,0,1-.27-.12A24.19,24.19,0,0,1,38,87.5Z"/><path class="cls-1" d="M49,90.64a.42.42,0,0,1-.12.3.41.41,0,0,1-.3.12H45.86a.05.05,0,0,0-.06.06v6.25a.41.41,0,0,1-.13.29.37.37,0,0,1-.29.13h-.9a.41.41,0,0,1-.3-.13.4.4,0,0,1-.12-.29V87a.45.45,0,0,1,.12-.31.44.44,0,0,1,.3-.12h4.06a.41.41,0,0,1,.3.12A.45.45,0,0,1,49,87ZM47.3,87.86a0,0,0,0,0,0,0H45.86s-.06,0-.06,0v.31a.05.05,0,0,0,.06.06h1.39s0,0,0-.06Zm-1.5,1.9a.05.05,0,0,0,.06.06h1.39s0,0,0-.06v-.35a0,0,0,0,0,0,0H45.86s-.06,0-.06,0Zm6.6,5a.4.4,0,0,1-.12.29.41.41,0,0,1-.3.13h-.72s0,0,0,.06v1.94a.41.41,0,0,1-.43.43h-.7a.41.41,0,0,1-.3-.12.45.45,0,0,1-.12-.31V95.2a.05.05,0,0,0-.06-.06h-.75s-.06,0-.07,0a4,4,0,0,1-1.19,2.36.4.4,0,0,1-.31.1A.48.48,0,0,1,47,97.5l-.5-.44a.32.32,0,0,1-.12-.25.45.45,0,0,1,.12-.26,2.78,2.78,0,0,0,.78-1.36s0,0,0,0h-.59a.37.37,0,0,1-.29-.13.41.41,0,0,1-.13-.29v-.59a.42.42,0,0,1,.13-.3.37.37,0,0,1,.29-.13h.66a0,0,0,0,0,0,0v-.6s0,0,0,0h-.49a.42.42,0,0,1-.3-.13.4.4,0,0,1-.13-.31v-.52a.4.4,0,0,1,.13-.31.42.42,0,0,1,.3-.13h5a.46.46,0,0,1,.31.13.43.43,0,0,1,.12.31v.52a.43.43,0,0,1-.12.31.46.46,0,0,1-.31.13h-.54s0,0,0,0v.6a0,0,0,0,0,0,0H52a.43.43,0,0,1,.42.43Zm-3.56-1.07s0,0,.06,0h.7s.06,0,.06,0v-.6s0,0-.06,0h-.7s-.06,0-.06,0Zm5.34-7.08a.41.41,0,0,1,.3.12.49.49,0,0,1,.11.31v8.79a3.21,3.21,0,0,1-.13,1,1.08,1.08,0,0,1-.49.59,3.69,3.69,0,0,1-1.68.32.45.45,0,0,1-.31-.12.58.58,0,0,1-.18-.3,7.41,7.41,0,0,0-.27-.95.23.23,0,0,1,0-.25.26.26,0,0,1,.23-.12h.8a.27.27,0,0,0,.2-.06.26.26,0,0,0,.05-.19v-4.6a.05.05,0,0,0-.06-.06H50a.38.38,0,0,1-.3-.13.4.4,0,0,1-.12-.29V87a.45.45,0,0,1,.12-.31.41.41,0,0,1,.3-.12Zm-1.34,1.29s0,0-.06,0H51.35s-.05,0-.05,0v.31s0,.06.05.06h1.43a.05.05,0,0,0,.06-.06ZM51.3,89.79s0,.06.05.06h1.43a.05.05,0,0,0,.06-.06v-.38s0,0-.06,0H51.35s-.05,0-.05,0Z"/><path class="cls-1" d="M62.42,87.29a.37.37,0,0,1,0-.31.35.35,0,0,1,.21-.22l1-.38a.33.33,0,0,1,.17,0,.32.32,0,0,1,.16,0,.51.51,0,0,1,.27.21,13,13,0,0,0,1.38,1.94,15,15,0,0,0,1.72,1.75.39.39,0,0,1,0,.56,11.15,11.15,0,0,0-1,1,.37.37,0,0,1-.27.15.38.38,0,0,1-.28-.11l-.2-.21h0s0,0,0,0c0,1.75-.13,3-.22,3.79A3.45,3.45,0,0,1,64.92,97a1.79,1.79,0,0,1-.54.47,2.77,2.77,0,0,1-.7.21,7.32,7.32,0,0,1-1.23.07h-.16a.45.45,0,0,1-.31-.12.63.63,0,0,1-.17-.31,4.51,4.51,0,0,0-.33-1,.23.23,0,0,1,0-.24A.23.23,0,0,1,61.7,96l1.07,0a.63.63,0,0,0,.49-.19,2.12,2.12,0,0,0,.27-1c.06-.54.11-1.37.15-2.5,0,0,0,0,0,0h-1.9s-.06,0-.06,0a11.85,11.85,0,0,1-.25,1.29A7.25,7.25,0,0,1,61,94.83a5.26,5.26,0,0,1-.71,1.11,5.58,5.58,0,0,1-1.06,1,7.81,7.81,0,0,1-1.49.83.57.57,0,0,1-.18,0,.41.41,0,0,1-.15,0,.47.47,0,0,1-.25-.23,7.68,7.68,0,0,0-.69-1,.28.28,0,0,1-.06-.25.25.25,0,0,1,.17-.2A6.16,6.16,0,0,0,58,95.36a3.44,3.44,0,0,0,.94-.92,3.89,3.89,0,0,0,.51-1,5.37,5.37,0,0,0,.27-1.1s0,0,0,0H58.3a.37.37,0,0,1-.29-.13.38.38,0,0,1-.13-.3v-.31a0,0,0,0,0,0,0s0,0,0,0c-.17.17-.34.33-.5.47a.44.44,0,0,1-.61-.05c-.29-.29-.6-.57-.92-.86a.28.28,0,0,1-.11-.24.35.35,0,0,1,.13-.28,9.08,9.08,0,0,0,1.77-1.74,10.18,10.18,0,0,0,1.32-2.21.56.56,0,0,1,.24-.24.54.54,0,0,1,.21,0l.13,0,1.12.33a.38.38,0,0,1,.24.5,15.06,15.06,0,0,1-2.09,3.33s0,0,0,0h5.8s0,0,0,0A23.22,23.22,0,0,1,62.42,87.29Z"/><path class="cls-1" d="M79,94.14a.46.46,0,0,1,.31.13.43.43,0,0,1,.12.31v.64a.42.42,0,0,1-.12.3.45.45,0,0,1-.31.12H74.82s0,0,0,.06v.53a1.66,1.66,0,0,1-.21.93,1.26,1.26,0,0,1-.71.47,9.22,9.22,0,0,1-2.17.18.57.57,0,0,1-.33-.11.63.63,0,0,1-.21-.3c-.08-.22-.18-.44-.29-.67a.23.23,0,0,1,0-.24.24.24,0,0,1,.21-.12c.4,0,.88,0,1.45,0a.48.48,0,0,0,.26-.07.2.2,0,0,0,.07-.18V95.7s0-.06,0-.06H68.69a.41.41,0,0,1-.3-.12.39.39,0,0,1-.13-.3v-.64a.4.4,0,0,1,.13-.31.42.42,0,0,1,.3-.13h4.13s0,0,0,0a.34.34,0,0,1,.11-.25.31.31,0,0,1,.24-.1h.47l.71-.29v0H69.91a.43.43,0,0,1-.3-.13.44.44,0,0,1-.13-.31v-.5a.46.46,0,0,1,.13-.31.42.42,0,0,1,.3-.12h6.85l.16,0a.69.69,0,0,1,.47.2l.51.44a.29.29,0,0,1,.1.26.29.29,0,0,1-.15.24,18.56,18.56,0,0,1-1.89,1v0h3ZM78.77,87a.38.38,0,0,1,.3.13.41.41,0,0,1,.12.3V88a.41.41,0,0,1-.12.3.38.38,0,0,1-.3.13H68.9a.4.4,0,0,1-.31-.13.42.42,0,0,1-.13-.3v-.63a.42.42,0,0,1,.13-.3A.4.4,0,0,1,68.9,87h3.89s0,0,0,0v-.34a.4.4,0,0,1,.13-.31.42.42,0,0,1,.3-.13h1a.46.46,0,0,1,.31.13.43.43,0,0,1,.12.31v.34s0,0,0,0ZM78,91.28a.38.38,0,0,1-.13.3.4.4,0,0,1-.29.12h-7.3a.45.45,0,0,1-.31-.12.41.41,0,0,1-.12-.3v-2a.4.4,0,0,1,.12-.29.42.42,0,0,1,.31-.13h7.3a.45.45,0,0,1,.42.42Zm-6.32-1.22s0,0,0,.06v.34s0,.05,0,.05H76s0,0,0-.05v-.34s0-.06,0-.06Z"/><path class="cls-1" d="M84.62,88.16a.42.42,0,0,1,.31.13.41.41,0,0,1,.12.3v.54a.42.42,0,0,1-.12.3.45.45,0,0,1-.31.12h-3.9a.41.41,0,0,1-.3-.12.42.42,0,0,1-.12-.3v-.54a.41.41,0,0,1,.12-.3.38.38,0,0,1,.3-.13Zm.51-1.2a.41.41,0,0,1,.12-.3.42.42,0,0,1,.31-.13h4.73a.38.38,0,0,1,.3.13.41.41,0,0,1,.12.3q-.06,1.4-.06,2.88c0,.92,0,1.87,0,2.85.07,2,.21,3.08.41,3.14,0,0,0-.08.07-.3s0-.49.06-.81a.12.12,0,0,1,.1-.11.1.1,0,0,1,.13,0c.18.33.34.59.48.8a1,1,0,0,1,.21.59.78.78,0,0,1,0,.16,2.12,2.12,0,0,1-.7,1.41,1,1,0,0,1-.56.18,1.42,1.42,0,0,1-.58-.13,1.26,1.26,0,0,1-.55-.55A4,4,0,0,1,89.36,96q-.15-.73-.24-1.5c-.07-.52-.11-1.15-.15-1.91s0-1.44-.06-2,0-1.35,0-2.23a0,0,0,0,0,0,0h-1s-.06,0-.06,0v2.29s0,.05.06.05h.45a.37.37,0,0,1,.29.13.42.42,0,0,1,.13.3v.8a.44.44,0,0,1-.13.31.41.41,0,0,1-.29.13h-.48s-.06,0-.06,0a8.42,8.42,0,0,1-1.87,5.16.36.36,0,0,1-.29.11.38.38,0,0,1-.29-.14,6.24,6.24,0,0,0-.63-.63h0s0,0,0,0a.32.32,0,0,1-.09.23.33.33,0,0,1-.23.09h-2a0,0,0,0,0,0,0,.36.36,0,0,1-.12.28.37.37,0,0,1-.27.12h-.67a.38.38,0,0,1-.3-.13.41.41,0,0,1-.12-.3V93.77a.41.41,0,0,1,.42-.42h3a.44.44,0,0,1,.3.12.41.41,0,0,1,.12.3v2.32h0a6.9,6.9,0,0,0,1.38-3.77s0,0-.06,0H85.4a.41.41,0,0,1-.29-.13.4.4,0,0,1-.13-.31v-.8a.38.38,0,0,1,.13-.3.37.37,0,0,1,.29-.13h.69s0,0,0-.05V88.28s0,0,0,0h-.53a.41.41,0,0,1-.43-.43Zm-.9,3a.41.41,0,0,1,.29.13.37.37,0,0,1,.13.29v.48a.38.38,0,0,1-.13.3.4.4,0,0,1-.29.12H81.3a.4.4,0,0,1-.29-.12.38.38,0,0,1-.13-.3v-.48a.37.37,0,0,1,.13-.29.41.41,0,0,1,.29-.13ZM81.3,93a.41.41,0,0,1-.29-.13.4.4,0,0,1-.13-.31v-.46a.4.4,0,0,1,.13-.31.41.41,0,0,1,.29-.13h2.93a.41.41,0,0,1,.29.13.4.4,0,0,1,.13.31v.46a.4.4,0,0,1-.13.31.41.41,0,0,1-.29.13Zm2.9-6.47a.43.43,0,0,1,.42.44v.46a.45.45,0,0,1-.12.31.42.42,0,0,1-.3.12H81.34a.4.4,0,0,1-.29-.12.42.42,0,0,1-.13-.31v-.46a.4.4,0,0,1,.13-.31.41.41,0,0,1,.29-.13Zm-1.09,9.29s0,0,0,0v-.94s0-.06,0-.06h-.73s0,0,0,.06v.94s0,0,0,0Z"/><path class="cls-1" d="M94.2,97.05a.41.41,0,0,1-.29.16.43.43,0,0,1-.33-.08l-.81-.55a.36.36,0,0,1-.15-.31.41.41,0,0,1,.09-.26,5.37,5.37,0,0,0,.94-1.72.39.39,0,0,1,.2-.25.38.38,0,0,1,.31,0l.81.29a.43.43,0,0,1,.24.22.39.39,0,0,1,0,.33A7,7,0,0,1,94.2,97.05Zm3.87-.84h1.39a.56.56,0,0,0,.38-.11.67.67,0,0,0,.16-.43.24.24,0,0,1,.15-.21.27.27,0,0,1,.26,0,6.71,6.71,0,0,0,.8.3.47.47,0,0,1,.28.2.44.44,0,0,1,.06.32,1.88,1.88,0,0,1-.59,1.19,2.22,2.22,0,0,1-1.33.32H97.86a3.7,3.7,0,0,1-1.37-.2,1.07,1.07,0,0,1-.64-.59,3,3,0,0,1-.17-1.17V94.61a.37.37,0,0,1,.12-.3.36.36,0,0,1,.29-.13h1.17s0,0,0,0h0A.2.2,0,0,1,97.2,94a.26.26,0,0,1,.09-.16l.66-.43h0s0,0,0,0H94.87a.44.44,0,0,1-.43-.43v-5.5a.4.4,0,0,1,.13-.31.42.42,0,0,1,.3-.13H97.2s.06,0,.07,0q.08-.3.12-.57a.4.4,0,0,1,.17-.27.39.39,0,0,1,.26-.1h.05l1.35.16a.24.24,0,0,1,.23.15.26.26,0,0,1,0,.27,3.13,3.13,0,0,1-.19.36s0,0,0,0h2.81a.41.41,0,0,1,.29.13.4.4,0,0,1,.13.31V93a.38.38,0,0,1-.13.3.37.37,0,0,1-.29.13H98.76s0,0,0,0,0,0,0,0a7.53,7.53,0,0,1,1.06,1.1.4.4,0,0,1,.07.32.37.37,0,0,1-.18.26l-.69.48a.4.4,0,0,1-.32,0,.37.37,0,0,1-.26-.18,11,11,0,0,0-1-1.1s0,0,0,0,0,0,0,0V95.8c0,.18,0,.3.11.34A1.26,1.26,0,0,0,98.07,96.21Zm-1.86-7.84s0,0,0,0v.29s0,.06,0,.06h4.44a.05.05,0,0,0,.06-.06v-.29s0,0-.06,0Zm0,1.64s0,0,0,.06v.27s0,.06,0,.06h4.44a.05.05,0,0,0,.06-.06v-.27a.05.05,0,0,0-.06-.06Zm0,1.64s0,0,0,.06V92s0,0,0,0h4.44s.06,0,.06,0v-.29a.05.05,0,0,0-.06-.06Zm4.91,3.27a.33.33,0,0,1-.1-.24.34.34,0,0,1,.17-.3l.71-.45a.47.47,0,0,1,.28-.09h0a.57.57,0,0,1,.33.16,9.52,9.52,0,0,1,1.63,2,.36.36,0,0,1,.06.2.28.28,0,0,1,0,.13.51.51,0,0,1-.2.28l-.84.54a.32.32,0,0,1-.18.06l-.11,0a.37.37,0,0,1-.24-.2A9.87,9.87,0,0,0,101.12,94.92Z"/><path class="cls-1" d="M79.6,34.45c-3.08-7.18-8-12.65-10.55-11.62-4.27,1.73,2.54,10.05-18.41,18.56-1.8.74-2.26,3.68-1.51,5.44s3.23,3.51,5,2.78c.32-.13,1.47-.5,1.47-.5,1.29,1.73,2.64.7,3.12,1.81.58,1.32,1.83,4.2,2.25,5.18s1.4,1.88,2.1,1.61l4-1.52A1.31,1.31,0,0,0,68,54.4c-.3-.7-1.53-.9-1.88-1.7s-1.5-3.39-1.83-4.2c-.45-1.11.5-2,1.89-2.16,9.53-1,11.31,4.9,14.56,3.58C83.2,48.9,82.69,41.62,79.6,34.45ZM78.53,46.09c-.56.22-4.31-2.74-6.71-8.31S69.73,27.1,70.29,26.87s4.21,3.35,6.61,8.92S79.09,45.86,78.53,46.09Z"/><path class="cls-1" d="M45.71,73.22A8.86,8.86,0,0,1,43,72.77a8.45,8.45,0,0,1-2.49-1.3.68.68,0,0,1-.26-.57.72.72,0,0,1,.16-.47L41.56,69a.68.68,0,0,1,.48-.26.87.87,0,0,1,.54.13A5.6,5.6,0,0,0,45.79,70a2.61,2.61,0,0,0,1.51-.35,1.17,1.17,0,0,0,.5-1,1,1,0,0,0-.42-.87A8.16,8.16,0,0,0,45.89,67l-.26-.12-2-.83a5.66,5.66,0,0,1-2.24-1.62,4,4,0,0,1-.89-2.63,4.2,4.2,0,0,1,1.59-3.33,6,6,0,0,1,4-1.35,7,7,0,0,1,4.49,1.54.72.72,0,0,1,.27.51.79.79,0,0,1-.17.55l-1,1.2a.74.74,0,0,1-.49.29.81.81,0,0,1-.55-.13,4.81,4.81,0,0,0-2.6-.79,2.35,2.35,0,0,0-1.37.35,1.12,1.12,0,0,0-.49.95.81.81,0,0,0,.12.44,1.76,1.76,0,0,0,.25.34,2.21,2.21,0,0,0,.48.31,4.37,4.37,0,0,0,.57.26l.72.3a1,1,0,0,1,.22.08l1.94.77a4.49,4.49,0,0,1,2.65,6.11,4.48,4.48,0,0,1-1.14,1.54,5.29,5.29,0,0,1-1.87,1.06A7.56,7.56,0,0,1,45.71,73.22Z"/><path class="cls-1" d="M58.57,73.22A3.9,3.9,0,0,1,55.39,72a5.31,5.31,0,0,1-1-3.45V64.06A.07.07,0,0,0,54.3,64h-.8a.73.73,0,0,1-.52-.21.72.72,0,0,1-.21-.52V62a.74.74,0,0,1,.21-.53.77.77,0,0,1,.52-.24l1-.09c.07,0,.1,0,.1-.1l.31-2.32a.76.76,0,0,1,.27-.51.85.85,0,0,1,.56-.2h1.63a.73.73,0,0,1,.52.21.7.7,0,0,1,.21.5V61c0,.06,0,.08.08.08h2a.75.75,0,0,1,.74.74v1.44a.69.69,0,0,1-.22.52.7.7,0,0,1-.52.21h-2a.07.07,0,0,0-.08.08V68.5a2,2,0,0,0,.4,1.38,1.35,1.35,0,0,0,1.08.45,1.72,1.72,0,0,0,.39,0,.8.8,0,0,1,.54.11.67.67,0,0,1,.32.42l.28,1.26a1.41,1.41,0,0,1,0,.18.69.69,0,0,1-.12.39.62.62,0,0,1-.45.32A7.81,7.81,0,0,1,58.57,73.22Z"/><path class="cls-1" d="M68.31,73.22A5.91,5.91,0,0,1,64,71.55,6.07,6.07,0,0,1,62.29,67a6.86,6.86,0,0,1,.48-2.59,5.86,5.86,0,0,1,1.26-2,5.58,5.58,0,0,1,1.79-1.22,5.06,5.06,0,0,1,2.09-.44,4.61,4.61,0,0,1,3.78,1.59A6.3,6.3,0,0,1,73,66.53a8.06,8.06,0,0,1,0,.85.77.77,0,0,1-.28.52.88.88,0,0,1-.55.19H66c-.07,0-.09,0-.08.1a2.67,2.67,0,0,0,2.93,2.2A4.52,4.52,0,0,0,70.69,70a.73.73,0,0,1,.56,0,.76.76,0,0,1,.44.34l.53,1a.77.77,0,0,1,.07.56.73.73,0,0,1-.34.45A7.37,7.37,0,0,1,68.31,73.22Zm-2.48-7.59s0,.06.08.06h3.85a.09.09,0,0,0,.1-.1,2.25,2.25,0,0,0-.48-1.45A1.74,1.74,0,0,0,68,63.62a2.12,2.12,0,0,0-1.39.5A2,2,0,0,0,65.83,65.63Z"/><path class="cls-1" d="M76.08,77.29a.64.64,0,0,1-.49-.22.66.66,0,0,1-.22-.49V61.85a.67.67,0,0,1,.22-.52.64.64,0,0,1,.49-.22h1.59a.82.82,0,0,1,.55.21,1,1,0,0,1,.33.51l.08.4s0,0,.05,0a.07.07,0,0,0,.07,0,5,5,0,0,1,3.3-1.4,4,4,0,0,1,3.38,1.64,7,7,0,0,1,1.25,4.38,8.67,8.67,0,0,1-.41,2.72,5.89,5.89,0,0,1-1.12,2,4.81,4.81,0,0,1-1.6,1.23,4.18,4.18,0,0,1-1.85.43A3.8,3.8,0,0,1,79,72.1s0,0,0,0a.06.06,0,0,0,0,0l.1,1.75v2.69a.68.68,0,0,1-.21.49.67.67,0,0,1-.52.22Zm4.74-7.06a1.71,1.71,0,0,0,1.48-.82,5.88,5.88,0,0,0,.09-4.81A1.59,1.59,0,0,0,81,63.86a2.57,2.57,0,0,0-1.83.92.21.21,0,0,0-.07.16v4.52a.17.17,0,0,0,.07.14A2.58,2.58,0,0,0,80.82,70.23Z"/><path class="cls-1" d="M99,66.24a.72.72,0,0,1,.52.21.73.73,0,0,1,.21.52v1.37a.73.73,0,0,1-.73.73h-.91c-.06,0-.09,0-.09.08v3a.72.72,0,0,1-.21.52.7.7,0,0,1-.52.21h-2a.72.72,0,0,1-.73-.73v-3c0-.05,0-.08-.09-.08H88.74a.64.64,0,0,1-.51-.22.69.69,0,0,1-.2-.51V67.22a2.7,2.7,0,0,1,.36-1.35l4.66-7.81a1.18,1.18,0,0,1,1.08-.63h3.11a.7.7,0,0,1,.52.21.73.73,0,0,1,.21.52v8s0,.08.09.08Zm-7.36-.08s0,.08,0,.08h2.78c.06,0,.09,0,.09-.08V64c0-.07,0-1.2.14-3.4a0,0,0,0,0,0,0,.07.07,0,0,0-.06,0c-.45,1-.86,1.88-1.22,2.61Z"/><polygon class="cls-1" points="87 35.63 94.04 34.9 93.91 38.6 86.67 37.14 87 35.63"/><polygon class="cls-1" points="85.96 31.78 86.65 33.79 97.37 31.52 96 28.34 85.96 31.78"/><polygon class="cls-1" points="85.28 30.61 84.09 29.61 87.91 23.54 91.28 26.03 85.28 30.61"/></g></g></svg>