<svg xmlns="http://www.w3.org/2000/svg" viewBox="0 0 45 45"><defs><style>.cls-1{fill:#011634;}.cls-2{fill:none;}</style></defs><title>icon_mail</title><g id="圖層_2" data-name="圖層 2"><g id="圖層_1-2" data-name="圖層 1"><path class="cls-1" d="M6,13.27l14.69,7.89a4.26,4.26,0,0,0,3.56,0L39,13.27c1-.52,1.86-2.13.1-2.13H5.93C4.17,11.14,5.08,12.75,6,13.27Zm33.34,3.91L24.28,25.07a3.37,3.37,0,0,1-1.78.4,3.37,3.37,0,0,1-1.78-.4L5.63,17.18c-.77-.4-.76.07-.76.43V32a2.28,2.28,0,0,0,1.94,1.88H38.19A2.28,2.28,0,0,0,40.13,32V17.61C40.13,17.25,40.14,16.78,39.37,17.18Z"/><rect class="cls-2" width="45" height="45"/></g></g></svg>