<svg xmlns="http://www.w3.org/2000/svg" viewBox="0 0 135.76 135.76"><defs><style>.cls-1{fill:#011634;}</style></defs><title>icon_st02</title><g id="圖層_2" data-name="圖層 2"><g id="圖層_1-2" data-name="圖層 1"><path class="cls-1" d="M67.83,135.76A67.86,67.86,0,0,1,45.23,3.93a67.83,67.83,0,0,1,86.6,41.3h0a67.95,67.95,0,0,1-64,90.53ZM67.93,3A64.88,64.88,0,0,0,6.75,89.52,64.85,64.85,0,0,0,89.52,129,64.85,64.85,0,0,0,129,46.23h0A65,65,0,0,0,67.93,3Z"/><path class="cls-1" d="M36.26,99.17a.18.18,0,0,1,.09.19.17.17,0,0,1-.13.17L35,100v0l1.44-.09a.22.22,0,0,1,.22.11.25.25,0,0,1,.06.16.29.29,0,0,1,0,.09,7.46,7.46,0,0,0-.26.85.79.79,0,0,1-.2.31.48.48,0,0,1-.33.12c-1.11,0-2.16.08-3.16.08s-1.67,0-2.44,0a5.55,5.55,0,0,1-1.81-.34,3.09,3.09,0,0,1-1.24-1s0,0-.07,0c-.3.32-.67.69-1.11,1.12a.32.32,0,0,1-.28.08.27.27,0,0,1-.21-.18l-.46-.93a.59.59,0,0,1-.05-.22.69.69,0,0,1,0-.13.44.44,0,0,1,.2-.28c.35-.25.67-.49.95-.71a.17.17,0,0,0,0-.1V96.57s0,0-.05,0h-.67a.4.4,0,0,1-.29-.12.46.46,0,0,1-.13-.31V95.3a.41.41,0,0,1,.13-.29.37.37,0,0,1,.29-.13h2a.37.37,0,0,1,.29.13.41.41,0,0,1,.13.29v3.47s0,.07,0,.09a2.19,2.19,0,0,0,1.41,1h0a0,0,0,0,0,0,0c-.22-.19-.46-.4-.73-.61a.2.2,0,0,1-.09-.21.22.22,0,0,1,.15-.16,7.2,7.2,0,0,0,1.52-.59s0,0,0,0a0,0,0,0,0,0,0H28.67a.44.44,0,0,1-.3-.12.41.41,0,0,1-.12-.3v-.44a.42.42,0,0,1,.12-.3.44.44,0,0,1,.3-.12h1.4a.05.05,0,0,0,.06-.06v-.52s0,0-.06,0H29a.41.41,0,0,1-.3-.12.45.45,0,0,1-.12-.31v-.41a.41.41,0,0,1,.12-.3.38.38,0,0,1,.3-.13h1.05s.06,0,.06,0v0a.43.43,0,0,1,.12-.31.42.42,0,0,1,.3-.13h.81a.44.44,0,0,1,.44.44v0s0,0,0,0h1s.06,0,.06,0v0a.43.43,0,0,1,.42-.44h.85a.41.41,0,0,1,.29.13.4.4,0,0,1,.13.31v0s0,0,.06,0h1.1a.38.38,0,0,1,.3.13.41.41,0,0,1,.12.3v.41a.45.45,0,0,1-.12.31.41.41,0,0,1-.3.12h-1.1s-.06,0-.06,0v.52a.05.05,0,0,0,.06.06h1.48a.41.41,0,0,1,.42.42v.44a.41.41,0,0,1-.12.3.42.42,0,0,1-.3.12H34.51s0,0,0,0C35.24,98.62,35.82,98.93,36.26,99.17Zm-8.44-7.1a.37.37,0,0,1,.05.31.41.41,0,0,1-.19.27l-.81.53a.38.38,0,0,1-.31,0,.36.36,0,0,1-.24-.18,11.31,11.31,0,0,0-1.06-1.44.34.34,0,0,1-.08-.29.32.32,0,0,1,.17-.25l.68-.43a.5.5,0,0,1,.29-.09h.06a.55.55,0,0,1,.31.16A9.83,9.83,0,0,1,27.82,92.07Zm2.66-.18s.05,0,.05-.07V91.6s0-.06-.05-.06H28.79a.42.42,0,0,1-.31-.13.4.4,0,0,1-.12-.29v-.24a.41.41,0,0,1,.43-.43h2.8a.44.44,0,0,1,.3.12.45.45,0,0,1,.12.31v1.69a.4.4,0,0,1-.12.29.41.41,0,0,1-.3.13h-.15s0,0,0,0a2.4,2.4,0,0,0,.69.28.48.48,0,0,1,.27.21.32.32,0,0,1,0,.3.91.91,0,0,1-.42.54,1.69,1.69,0,0,1-.81.16H30.05a1.76,1.76,0,0,1-1.22-.31A1.6,1.6,0,0,1,28.51,93V92.3a.37.37,0,0,1,.13-.29.41.41,0,0,1,.3-.12Zm.73,6.35s0,0,0,0,0,0,0,0l.54.18a.24.24,0,0,1,.16.19.21.21,0,0,1-.09.23,8.54,8.54,0,0,1-1.93,1.07s0,0,0,0l.42,0q.87,0,2,0l2.36,0h0a0,0,0,0,0,0,0,13.17,13.17,0,0,0-1.59-1,.24.24,0,0,1-.12-.21.22.22,0,0,1,.12-.2l.48-.27a0,0,0,0,0,0,0,0,0,0,0,0,0,0Zm-.92-4.89H31a.3.3,0,0,0,.22-.06.6.6,0,0,0,.1-.25s0-.05-.05-.05H30a.05.05,0,0,0-.06.06q0,.2.06.24A.41.41,0,0,0,30.29,93.35Zm1.55,3s0,0,0,0v.52s0,.06,0,.06h1a.05.05,0,0,0,.06-.06v-.52s0,0-.06,0Zm2.7-4.44s.05,0,.05-.07V91.6s0-.06-.05-.06H32.75a.39.39,0,0,1-.29-.13.4.4,0,0,1-.12-.29v-.24a.45.45,0,0,1,.12-.31.42.42,0,0,1,.29-.12h2.93a.4.4,0,0,1,.29.12.42.42,0,0,1,.13.31v1.69a.45.45,0,0,1-.42.42h-.2s0,0,0,0,0,0,0,0a2.4,2.4,0,0,0,.69.28.56.56,0,0,1,.27.21.32.32,0,0,1,0,.3.92.92,0,0,1-.43.54,1.65,1.65,0,0,1-.82.16H34.09a1.76,1.76,0,0,1-1.22-.31A1.6,1.6,0,0,1,32.55,93V92.3a.37.37,0,0,1,.13-.29.41.41,0,0,1,.3-.12Zm-.21,1.46H35a.3.3,0,0,0,.22-.06.6.6,0,0,0,.1-.25s0-.05,0-.05H34.06a.05.05,0,0,0-.06.06q0,.2.06.24A.41.41,0,0,0,34.33,93.35Z"/><path class="cls-1" d="M48.94,96.22a.42.42,0,0,1-.12.3.41.41,0,0,1-.3.12h-.68a.11.11,0,0,0-.09,0l-.41.69s0,0,0,0h1a.41.41,0,0,1,.29.13.37.37,0,0,1,.13.29v.46a.45.45,0,0,1-.42.42H45.93a.05.05,0,0,0-.06.06v.27s0,0,.06,0h2.16a.38.38,0,0,1,.3.13.41.41,0,0,1,.12.3V100a.45.45,0,0,1-.12.31.41.41,0,0,1-.3.12H45.93s-.06,0-.06.05v1a.41.41,0,0,1-.42.42h-.83a.41.41,0,0,1-.3-.12.38.38,0,0,1-.13-.3v-1a0,0,0,0,0,0-.05h-2a.41.41,0,0,1-.3-.12.42.42,0,0,1-.13-.31v-.42a.44.44,0,0,1,.43-.43h2s0,0,0,0v-.27s0-.06,0-.06H41.78a.38.38,0,0,1-.3-.13.37.37,0,0,1-.13-.29v-.46a.37.37,0,0,1,.13-.29.42.42,0,0,1,.3-.13h1s0,0,0-.06-.07-.28-.12-.45a.22.22,0,0,1,0-.16.14.14,0,0,1,.13-.09v0H41.3s0,0,0,0a.23.23,0,0,1-.17.27l-.83.23a.07.07,0,0,0-.06.07V100a3,3,0,0,1-.12,1,1.05,1.05,0,0,1-.42.55,2.69,2.69,0,0,1-1.36.34.47.47,0,0,1-.32-.12.51.51,0,0,1-.17-.3c-.06-.28-.14-.56-.23-.84a.27.27,0,0,1,0-.26.25.25,0,0,1,.23-.11h.53a.21.21,0,0,0,.15,0s0-.07,0-.15V97.69s0-.06,0,0l-.54.14a.36.36,0,0,1-.32,0,.41.41,0,0,1-.18-.26l-.19-.87a.34.34,0,0,1,0-.1.31.31,0,0,1,.07-.21.42.42,0,0,1,.27-.2l.47-.1.43-.09s0,0,0-.07V94.07s0-.06,0-.06h-.69a.41.41,0,0,1-.29-.13.37.37,0,0,1-.13-.29V92.8a.39.39,0,0,1,.13-.3.4.4,0,0,1,.29-.12h.69s0,0,0-.06V90.57a.38.38,0,0,1,.13-.3.41.41,0,0,1,.3-.12h.78a.42.42,0,0,1,.3.12.41.41,0,0,1,.12.3v1.75a.05.05,0,0,0,.06.06h.51a.4.4,0,0,1,.29.12.43.43,0,0,1,.13.3v.79a.45.45,0,0,1-.42.42h-.51a.05.05,0,0,0-.06.06v1.38s0,0,.06,0l.4-.1a.34.34,0,0,1,.3.06.39.39,0,0,1,.17.26l.1.77v-.72a.42.42,0,0,1,.13-.3.43.43,0,0,1,.31-.12h2.45s0,0,0-.06V95a0,0,0,0,0,0,0H42.28a.42.42,0,0,1-.3-.12.46.46,0,0,1-.13-.31v-.38a.46.46,0,0,1,.13-.31.42.42,0,0,1,.3-.12h1.86a0,0,0,0,0,0,0v-.24a0,0,0,0,0,0,0h-2a.42.42,0,0,1-.31-.13.41.41,0,0,1-.12-.3V91a.41.41,0,0,1,.12-.3.42.42,0,0,1,.31-.13h6a.44.44,0,0,1,.43.43v2a.44.44,0,0,1-.43.43H45.93s-.06,0-.06,0v.24s0,0,.06,0H48a.41.41,0,0,1,.3.12.45.45,0,0,1,.12.31v.38a.45.45,0,0,1-.12.31.41.41,0,0,1-.3.12H45.93s-.06,0-.06,0v.29a.05.05,0,0,0,.06.06h2.59a.41.41,0,0,1,.42.42Zm-5.47-4a.05.05,0,0,0,.06-.06v-.42s0,0-.06,0h-.36a0,0,0,0,0,0,0v.42s0,.06,0,.06Zm.73,5.19h1.55a.08.08,0,0,0,.07,0q.1-.27.24-.69s0,0,0,0h-1.8s0,0,0,.06a4.38,4.38,0,0,1,.16.47.22.22,0,0,1,0,.16A.17.17,0,0,1,44.2,97.41Zm.71-5.72s-.06,0-.06,0v.42a.05.05,0,0,0,.06.06h.37s0,0,0-.06v-.42a0,0,0,0,0,0,0Zm1.8,0a0,0,0,0,0-.05,0v.42s0,.06.05.06h.38a.05.05,0,0,0,.06-.06v-.42s0,0-.06,0Z"/><path class="cls-1" d="M58.49,97s0,0,0,0h2.2a.37.37,0,0,1,.29.13.42.42,0,0,1,.13.3V98a.46.46,0,0,1-.13.31.4.4,0,0,1-.29.12H50.15a.4.4,0,0,1-.29-.12.42.42,0,0,1-.13-.31v-.47a.38.38,0,0,1,.13-.3.37.37,0,0,1,.29-.13h2.23s0,0,0,0a1,1,0,0,0,0-.1.39.39,0,0,1,0-.3.31.31,0,0,1,.22-.18l.1,0h0s0,0,0,0H52a.4.4,0,0,1-.31-.13.41.41,0,0,1-.12-.3V94.26a.44.44,0,0,1,.12-.3.43.43,0,0,1,.31-.12h7.14a.45.45,0,0,1,.31.12.44.44,0,0,1,.12.3V96a.41.41,0,0,1-.12.3.42.42,0,0,1-.31.13H59a.07.07,0,0,0-.07,0C58.76,96.62,58.63,96.82,58.49,97Zm-4.06-4.67s0,0,0-.06v-.19s0-.06,0-.06H50.6a.37.37,0,0,1-.29-.13.41.41,0,0,1-.13-.29v-.4a.41.41,0,0,1,.13-.29.37.37,0,0,1,.29-.13h3.83s0,0,0-.06v-.19a.41.41,0,0,1,.12-.3.42.42,0,0,1,.31-.13h1a.44.44,0,0,1,.43.43v.19s0,.06.05.06h3.92a.37.37,0,0,1,.29.13.41.41,0,0,1,.13.29v.4a.41.41,0,0,1-.13.29.37.37,0,0,1-.29.13H56.35s-.05,0-.05.06v.19s0,.06.05.06h3.23a.45.45,0,0,1,.31.12.44.44,0,0,1,.12.3v.36a.4.4,0,0,1-.12.29.42.42,0,0,1-.31.13H51.43a.38.38,0,0,1-.3-.13.37.37,0,0,1-.13-.29v-.36a.43.43,0,0,1,.43-.42Zm-2.75,9.46a.45.45,0,0,1-.42-.42V99.11a.42.42,0,0,1,.13-.3.37.37,0,0,1,.29-.13h7.66a.38.38,0,0,1,.3.13.41.41,0,0,1,.12.3v2.26a.4.4,0,0,1-.12.29.42.42,0,0,1-.3.13H58.19a.25.25,0,0,1-.18-.08.21.21,0,0,1-.08-.19s0,0,0,0H53.05l0,0a.24.24,0,0,1-.07.19.29.29,0,0,1-.19.08Zm6.25-1.9a.05.05,0,0,0-.06-.06h-4.8a.05.05,0,0,0-.06.06v.39s0,0,.06,0h4.8s.06,0,.06,0Zm-4.66-5s-.05,0-.05,0v.32s0,.06.05.06h4.39s.05,0,.05-.06V95s0,0-.05,0Zm3.57,1.52s0-.05,0-.05H54s-.05,0,0,.05a5.34,5.34,0,0,1,.25.57.06.06,0,0,0,.07,0h2.23a.06.06,0,0,0,.07,0Z"/><path class="cls-1" d="M69.83,97.38a1.51,1.51,0,0,1,.78.16l.4.25a.47.47,0,0,1,.19.27.39.39,0,0,1-.07.31,6,6,0,0,1-1.44,1.41,0,0,0,0,0,0,0h0a23.46,23.46,0,0,0,3.3.38.19.19,0,0,1,.18.12s0,.07,0,.1a.27.27,0,0,1,0,.13,7.51,7.51,0,0,0-.55.88.63.63,0,0,1-.25.26.57.57,0,0,1-.36.07,15.6,15.6,0,0,1-4.25-.91h-.09a17.71,17.71,0,0,1-4.16.92l-.07,0a.67.67,0,0,1-.53-.35,7.2,7.2,0,0,0-.48-.74.24.24,0,0,1,0-.14.16.16,0,0,1,0-.09.2.2,0,0,1,.18-.13,20.29,20.29,0,0,0,3.26-.46v0a0,0,0,0,0,0,0,8.63,8.63,0,0,1-.73-.6.1.1,0,0,0-.09,0c-.33.16-.65.31-1,.44a.52.52,0,0,1-.24,0,.59.59,0,0,1-.44-.21l-.58-.58a.19.19,0,0,1-.07-.21.23.23,0,0,1,.16-.18,8.51,8.51,0,0,0,3.21-1.68s0,0,0-.06a.93.93,0,0,1-.46-.35,1.57,1.57,0,0,1-.18-.62s0,0,0,0,0,0,0,0a5.1,5.1,0,0,1-1.09,1.31.52.52,0,0,1-.33.12.65.65,0,0,1-.35-.13l-.55-.44a.31.31,0,0,1-.11-.25.3.3,0,0,1,.14-.24,4.18,4.18,0,0,0,.84-.84s0,0,0,0h-1.1a.41.41,0,0,1-.3-.12.45.45,0,0,1-.12-.31V93.41a.45.45,0,0,1,.12-.31.41.41,0,0,1,.3-.12h1.53s.06,0,0,0a5.86,5.86,0,0,0-.49-.83.11.11,0,0,0-.09,0l-.36,0a.45.45,0,0,1-.31-.12.55.55,0,0,1-.18-.3,3.45,3.45,0,0,0-.12-.46.31.31,0,0,1,0-.28.27.27,0,0,1,.24-.13,54.52,54.52,0,0,0,7.77-.6h.16a.8.8,0,0,1,.56.23l.57.57a.24.24,0,0,1,.06.23.2.2,0,0,1-.17.16l-1,.17h0s0,0,0,0l.54.16a.31.31,0,0,1,.21.19.33.33,0,0,1,0,.29c-.2.27-.38.51-.54.74,0,0,0,0,0,0h1.36a.41.41,0,0,1,.3.12.45.45,0,0,1,.12.31V95.1a.4.4,0,0,1-.12.29.38.38,0,0,1-.3.13H72s0,0,0,0,0,0,0,0q.25.26.42.45a.39.39,0,0,1,.08.31.45.45,0,0,1-.18.29l-.57.43a.4.4,0,0,1-.31.08.43.43,0,0,1-.28-.18,7.67,7.67,0,0,0-.89-1s0,0,0,0a1.17,1.17,0,0,1-.46.75,2,2,0,0,1-1,.2h-.61A.12.12,0,0,0,68,97c-.09.11-.2.23-.32.35s0,0,0,0a0,0,0,0,0,0,0Zm-4.41-2.23a.37.37,0,0,1,.11-.27.37.37,0,0,1,.27-.12h1.06s0,0,0,0v0l-.11,0a.18.18,0,0,1-.11-.15.22.22,0,0,1,0-.19v0H64.13s0,0,0,.05v.74s0,0,0,0l0,0a.41.41,0,0,1,.26-.21.5.5,0,0,1,.34,0l.64.29S65.42,95.18,65.42,95.15ZM65.77,93s0,0,0,0H67s0,0,0,0a5.74,5.74,0,0,0-.43-.94s0,0-.08,0l-.86,0s0,0,0,.05a4.71,4.71,0,0,1,.29.48.34.34,0,0,1,0,.26A.32.32,0,0,1,65.77,93Zm3,5.64a0,0,0,0,0,0,0H66.47s0,0,0,0a6.57,6.57,0,0,0,1.16.62.1.1,0,0,0,.09,0A5.19,5.19,0,0,0,68.75,98.6Zm2.5-3.68s0,0,0,0v-.52s0-.05-.06-.05H68.69s0,0,0,0,0,0,0,0l.06,0a.31.31,0,0,1,.16.26.34.34,0,0,1-.1.3l-.31.34a.39.39,0,0,1-.3.14.45.45,0,0,1-.32-.09,5.77,5.77,0,0,0-.78-.48s0,0,0,0v.54c0,.15,0,.23.08.27a.9.9,0,0,0,.36,0h1a.4.4,0,0,0,.29-.09.42.42,0,0,1,.32-.21l.11,0a3.83,3.83,0,0,0,.65.21h0s0,0,0,0l-.07-.07a.32.32,0,0,1-.12-.26.3.3,0,0,1,.13-.26l.49-.35a.55.55,0,0,1,.35-.12.5.5,0,0,1,.33.12Zm-3.11-2a0,0,0,0,0,0,0h1.27a.14.14,0,0,0,.09,0,10,10,0,0,0,.62-1.22s0,0,0,0h0c-.55.06-1.13.12-1.73.16,0,0-.06,0,0,.07a5.06,5.06,0,0,1,.24.46.38.38,0,0,1,0,.33.4.4,0,0,1-.24.22Z"/><path class="cls-1" d="M82.21,92s0,0,0,0h2.87a.43.43,0,0,1,.3.13.41.41,0,0,1,.13.29c0,.13,0,.25,0,.36q-.12,4.32-.26,6a4.69,4.69,0,0,1-.53,2.15,1.75,1.75,0,0,1-.55.54,3.06,3.06,0,0,1-.74.24,6.4,6.4,0,0,1-1.12.07h-.45a.43.43,0,0,1-.31-.13.51.51,0,0,1-.17-.3,4.74,4.74,0,0,0-.32-.94.21.21,0,0,1,0-.23.19.19,0,0,1,.2-.1c.42,0,.89,0,1.43,0a.73.73,0,0,0,.54-.21,3.79,3.79,0,0,0,.39-1.7c.09-.94.16-2.43.21-4.49,0,0,0-.06,0-.06H81.59a.08.08,0,0,0-.08,0,15.37,15.37,0,0,1-.78,1.43.38.38,0,0,1-.57.08q-.31-.24-.63-.45s0,0,0,0v5.36a.43.43,0,0,1-.42.43H76.32s0,0,0,0V101a.42.42,0,0,1-.13.31.41.41,0,0,1-.3.12h-.76a.41.41,0,0,1-.3-.12.45.45,0,0,1-.12-.31V92.56a.43.43,0,0,1,.12-.31.42.42,0,0,1,.3-.13H76s.06,0,.07,0c.1-.52.17-1,.22-1.53a.43.43,0,0,1,.4-.37h.06l1.1.16a.36.36,0,0,1,.26.17.32.32,0,0,1,0,.3c-.2.57-.35,1-.46,1.27,0,0,0,0,0,0h1.34a.45.45,0,0,1,.3.13.43.43,0,0,1,.12.31v1.15s0,0,0,0,0,0,0,0a12.91,12.91,0,0,0,1.34-3.14.42.42,0,0,1,.19-.26.37.37,0,0,1,.32,0l.9.2a.39.39,0,0,1,.25.2.36.36,0,0,1,0,.3Q82.41,91.44,82.21,92Zm-4.39,3.38a.05.05,0,0,0,.06-.06V93.73a.05.05,0,0,0-.06-.06h-1.5s0,0,0,.06v1.55s0,.06,0,.06Zm-1.55,3.58s0,.06,0,.06h1.5a.05.05,0,0,0,.06-.06v-2s0,0-.06,0h-1.5s0,0,0,0Zm7-1.6a.42.42,0,0,1,.06.21.25.25,0,0,1,0,.12.43.43,0,0,1-.2.26l-.78.48a.37.37,0,0,1-.2,0H82a.33.33,0,0,1-.24-.2c-.24-.47-.64-1.17-1.21-2.11a.49.49,0,0,1-.06-.22.45.45,0,0,1,0-.11.41.41,0,0,1,.2-.25l.65-.37a.46.46,0,0,1,.23-.06h.1a.47.47,0,0,1,.28.19C82.58,96.26,83,96.93,83.23,97.32Z"/><path class="cls-1" d="M96.24,98.84a.38.38,0,0,1-.13.3.41.41,0,0,1-.3.12h-.93a0,0,0,0,0,0,0,19.15,19.15,0,0,1,2.45,1.14.29.29,0,0,1,.14.25.26.26,0,0,1-.11.23l-.61.49a.57.57,0,0,1-.33.13.74.74,0,0,1-.36-.09,17.7,17.7,0,0,0-2.24-1.17.23.23,0,0,1-.15-.19.23.23,0,0,1,.09-.24l.7-.54s0,0,0,0H93.24s0,0,0,.06v1a1.87,1.87,0,0,1-.15.85,1,1,0,0,1-.58.42,5.71,5.71,0,0,1-1.67.18.53.53,0,0,1-.52-.4,6,6,0,0,0-.31-.78s0,0-.06,0a14.89,14.89,0,0,1-1.82,1,.6.6,0,0,1-.37,0,.68.68,0,0,1-.32-.18c-.25-.26-.48-.48-.68-.66a.19.19,0,0,1-.08-.16.13.13,0,0,1,0-.06.2.2,0,0,1,.15-.17,8.31,8.31,0,0,0,2.29-1s0,0,0,0H88.8a.43.43,0,0,1-.31-.12.42.42,0,0,1-.13-.3v-2.1a.42.42,0,0,1,.13-.3.43.43,0,0,1,.31-.12h7a.41.41,0,0,1,.3.12.38.38,0,0,1,.13.3Zm1-4.17a.41.41,0,0,1,.43.43v.51a.42.42,0,0,1-.12.3.45.45,0,0,1-.31.12h-10a.45.45,0,0,1-.31-.12.42.42,0,0,1-.12-.3V95.1a.41.41,0,0,1,.43-.43h4.09s0,0,0,0v-.23s0,0,0,0H88.5a.42.42,0,0,1-.3-.12.45.45,0,0,1-.12-.31v-3a.45.45,0,0,1,.12-.31.42.42,0,0,1,.3-.12H96a.4.4,0,0,1,.29.12.42.42,0,0,1,.13.31v3a.42.42,0,0,1-.13.31.4.4,0,0,1-.29.12H93.21s0,0,0,0v.23s0,0,0,0Zm-5.82,5.57v-.92s0-.06-.05-.06H89.61s0,0,0,0l.9.36a.26.26,0,0,1,.17.2.22.22,0,0,1-.1.23,4.73,4.73,0,0,1-.43.31,0,0,0,0,0,0,0s0,0,0,0h1a.32.32,0,0,0,.18-.05A.17.17,0,0,0,91.4,100.24Zm-1.56-8.71a.05.05,0,0,0-.06.06v.25a.05.05,0,0,0,.06.06h4.72a.05.05,0,0,0,.06-.06v-.25a.05.05,0,0,0-.06-.06Zm0,1.36s-.06,0-.06,0v.28a.05.05,0,0,0,.06.06h4.72a.05.05,0,0,0,.06-.06v-.28s0,0-.06,0Zm4.54,5.18a0,0,0,0,0,.05,0v-.46s0,0-.05,0H90.13s0,0,0,0V98s0,0,0,0Z"/><path class="cls-1" d="M100.57,99.38a.2.2,0,0,1,0-.17.16.16,0,0,1,.15-.08l.41,0a.41.41,0,0,1,.32.08.42.42,0,0,1,.17.29,11.82,11.82,0,0,1,.14,1.32.54.54,0,0,1-.11.32.44.44,0,0,1-.31.15l-.26,0a.34.34,0,0,1-.3-.09.36.36,0,0,1-.12-.28c0-.38,0-.8-.1-1.28h0a5.72,5.72,0,0,1-.61,1.83.43.43,0,0,1-.27.2.46.46,0,0,1-.36-.06L99,101.4a.29.29,0,0,1-.18-.24.28.28,0,0,1,0-.09.42.42,0,0,1,.06-.21,4.61,4.61,0,0,0,.53-1.37.39.39,0,0,1,.19-.26.32.32,0,0,1,.3,0l.69.21h0S100.57,99.39,100.57,99.38Zm9.78-5.56a.41.41,0,0,1-.12.3.42.42,0,0,1-.3.13h-1.78s0,0,0,0v1.56s0,.06,0,.06h1.38a.42.42,0,0,1,.31.13.4.4,0,0,1,.12.29v5a.4.4,0,0,1-.12.29.46.46,0,0,1-.31.13h-.93a.33.33,0,0,1-.24-.1.29.29,0,0,1-.1-.23s0,0,0,0h-1.74s0,0,0,0a.39.39,0,0,1-.11.27.35.35,0,0,1-.26.1h-.82a.41.41,0,0,1-.3-.12.4.4,0,0,1-.12-.29v-.64s0,0-.06,0l-.55.23a.34.34,0,0,1-.31,0,.38.38,0,0,1-.2-.23,9.14,9.14,0,0,0-.51-1.25.35.35,0,0,1,0-.3.35.35,0,0,1,.22-.21l.57-.21v0c-2.06.1-3.6.16-4.63.2a.38.38,0,0,1-.3-.1.42.42,0,0,1-.13-.3l0-.64a.44.44,0,0,1,.12-.3.36.36,0,0,1,.29-.13l1.67,0s0,0,0-.06V97s0-.05,0-.05H99.63a.41.41,0,0,1-.3-.12.45.45,0,0,1-.12-.31v-.47a.41.41,0,0,1,.12-.3.38.38,0,0,1,.3-.13H101s0,0,0,0v-.25s0,0,0,0H99.56a.41.41,0,0,1-.43-.43v-4a.41.41,0,0,1,.43-.43h4.58a.4.4,0,0,1,.29.12.42.42,0,0,1,.13.31v4a.42.42,0,0,1-.13.31.4.4,0,0,1-.29.12h-1.5s-.06,0-.06,0v.25s0,0,.06,0H104a.42.42,0,0,1,.31.13.41.41,0,0,1,.12.3v.47A.41.41,0,0,1,104,97h-1.39s-.06,0-.06.05v.23s0,0,.06,0l1.61,0a.36.36,0,0,1,.29.11.36.36,0,0,1,.11.3v.52a.43.43,0,0,1-.12.31.52.52,0,0,1-.31.14h-.11s0,0,0,0a7.33,7.33,0,0,1,.74,1.52s0,0,0,0V96.33A.4.4,0,0,1,105,96a.38.38,0,0,1,.3-.13h1.07a.05.05,0,0,0,.06-.06V90.57a.41.41,0,0,1,.42-.42h.87a.43.43,0,0,1,.44.42v2s0,0,0,0h1.78a.38.38,0,0,1,.3.13.41.41,0,0,1,.12.3Zm-9.06-2.14a.05.05,0,0,0-.06-.06h-.75s0,0,0,.06V92s0,0,0,0l.1,0a.44.44,0,0,1,.32,0,.43.43,0,0,1,.21.25c.06.24.12.46.16.66h0Zm-.84,1a0,0,0,0,0,0,0,0,0,0,0,0,0,0v1.44a0,0,0,0,0,0,0h.75s.06,0,.06,0v-.41s0-.05-.06,0l-.2.06a.28.28,0,0,1-.28,0,.38.38,0,0,1-.16-.26C100.56,93.2,100.51,93,100.45,92.65Zm1.46,6.87a.38.38,0,0,1,0-.31.36.36,0,0,1,.26-.17l.19,0a.42.42,0,0,1,.34.06.43.43,0,0,1,.2.27,7.68,7.68,0,0,1,.3,1.24.39.39,0,0,1-.07.31.4.4,0,0,1-.28.19l-.25,0a.36.36,0,0,1-.3-.07.37.37,0,0,1-.15-.27C102.12,100.4,102,100,101.91,99.52Zm1.23-7.45s0,0,0,0v-.35s0-.06,0-.06h-.76s0,0,0,.06v1.43s0,0,0,0c.08-.27.15-.54.22-.79a.32.32,0,0,1,.18-.25.38.38,0,0,1,.31,0Zm-.81,2s0,0,0,0h.76s0,0,0,0V93s0,0,0,0a4.78,4.78,0,0,0-.2.49.43.43,0,0,1-.24.24.5.5,0,0,1-.34,0h0s0,0,0,0Zm5.88,5.66s.05,0,.05,0V97.57s0,0-.05,0h-1.72s0,0,0,0V99.7a0,0,0,0,0,0,0Z"/><path class="cls-1" d="M83,16.71l-35.33,26a1.44,1.44,0,0,0,.52,2.57l13.16,3L68.06,60a1.44,1.44,0,0,0,2.61-.24L85.16,18.35A1.44,1.44,0,0,0,83,16.71ZM69.71,55.08a.72.72,0,0,1-1.29.13l-5-9.84,18.55-25Z"/><path class="cls-1" d="M45.71,77.22A8.86,8.86,0,0,1,43,76.77a8.45,8.45,0,0,1-2.49-1.3.66.66,0,0,1-.26-.57.72.72,0,0,1,.16-.47L41.56,73a.68.68,0,0,1,.48-.26.82.82,0,0,1,.54.14A5.67,5.67,0,0,0,45.79,74a2.61,2.61,0,0,0,1.51-.36,1.16,1.16,0,0,0,.51-1,1,1,0,0,0-.43-.87A8.16,8.16,0,0,0,45.89,71l-.26-.12-2-.83a5.66,5.66,0,0,1-2.24-1.62,4,4,0,0,1-.89-2.63,4.2,4.2,0,0,1,1.59-3.33,6,6,0,0,1,4-1.35,7,7,0,0,1,4.49,1.54.72.72,0,0,1,.27.51.77.77,0,0,1-.17.55l-1,1.2a.74.74,0,0,1-.49.29.81.81,0,0,1-.55-.13,4.9,4.9,0,0,0-2.6-.79,2.35,2.35,0,0,0-1.37.35,1.11,1.11,0,0,0-.48,1,.8.8,0,0,0,.11.44,1.76,1.76,0,0,0,.25.34,2.21,2.21,0,0,0,.48.31,4.61,4.61,0,0,0,.57.27l.72.29.23.08,1.93.78a4.48,4.48,0,0,1,2.65,6.1,4.61,4.61,0,0,1-1.14,1.55,5.28,5.28,0,0,1-1.87,1A7.56,7.56,0,0,1,45.71,77.22Z"/><path class="cls-1" d="M58.57,77.22A3.9,3.9,0,0,1,55.39,76a5.31,5.31,0,0,1-1-3.45V68.07c0-.06,0-.09-.08-.09h-.8a.73.73,0,0,1-.52-.21.72.72,0,0,1-.21-.52V66a.76.76,0,0,1,.21-.53.77.77,0,0,1,.52-.24l1-.09c.07,0,.1,0,.1-.1l.31-2.32a.76.76,0,0,1,.27-.51.85.85,0,0,1,.56-.2h1.63a.7.7,0,0,1,.52.22.67.67,0,0,1,.21.49V65c0,.06,0,.08.08.08h2a.71.71,0,0,1,.52.22.67.67,0,0,1,.22.52v1.44a.69.69,0,0,1-.22.52.7.7,0,0,1-.52.21h-2s-.08,0-.08.09V72.5a2,2,0,0,0,.4,1.38,1.36,1.36,0,0,0,1.09.45,1.69,1.69,0,0,0,.38,0,.8.8,0,0,1,.54.11.64.64,0,0,1,.32.42l.28,1.26a1.41,1.41,0,0,1,0,.18.69.69,0,0,1-.12.39.62.62,0,0,1-.45.33A8.27,8.27,0,0,1,58.57,77.22Z"/><path class="cls-1" d="M68.31,77.22A5.91,5.91,0,0,1,64,75.55,6.06,6.06,0,0,1,62.29,71a6.87,6.87,0,0,1,.48-2.6,5.86,5.86,0,0,1,1.26-2,5.75,5.75,0,0,1,1.79-1.22,5.23,5.23,0,0,1,2.09-.44,4.61,4.61,0,0,1,3.78,1.59A6.3,6.3,0,0,1,73,70.53a8.06,8.06,0,0,1,0,.85.77.77,0,0,1-.28.52.88.88,0,0,1-.55.19H66c-.06,0-.09,0-.08.11a2.67,2.67,0,0,0,2.93,2.19,4.66,4.66,0,0,0,1.87-.4.69.69,0,0,1,.56-.06.8.8,0,0,1,.44.34l.53,1a.77.77,0,0,1,.07.56.7.7,0,0,1-.34.45A7.37,7.37,0,0,1,68.31,77.22Zm-2.48-7.59s0,.06.08.06h3.85a.09.09,0,0,0,.1-.1,2.15,2.15,0,0,0-.48-1.44A1.71,1.71,0,0,0,68,67.62a2.08,2.08,0,0,0-1.39.51A2,2,0,0,0,65.83,69.63Z"/><path class="cls-1" d="M76.08,81.29a.67.67,0,0,1-.49-.21.68.68,0,0,1-.22-.5V65.85a.75.75,0,0,1,.71-.74h1.59a.82.82,0,0,1,.55.21,1,1,0,0,1,.33.51l.08.4s0,0,.05,0a.08.08,0,0,0,.07,0,5,5,0,0,1,3.3-1.4,4,4,0,0,1,3.38,1.64,7,7,0,0,1,1.25,4.38,8.67,8.67,0,0,1-.41,2.72,5.89,5.89,0,0,1-1.12,2,4.81,4.81,0,0,1-1.6,1.23,4.18,4.18,0,0,1-1.85.43A3.8,3.8,0,0,1,79,76.1s0,0,0,0a.06.06,0,0,0,0,0l.1,1.75v2.69a.72.72,0,0,1-.73.71Zm4.74-7.06a1.71,1.71,0,0,0,1.48-.81,5.91,5.91,0,0,0,.09-4.82A1.59,1.59,0,0,0,81,67.86a2.57,2.57,0,0,0-1.83.92.23.23,0,0,0-.07.16v4.52a.17.17,0,0,0,.07.14A2.58,2.58,0,0,0,80.82,74.23Z"/><path class="cls-1" d="M89.17,76.94a.71.71,0,0,1-.52-.22.67.67,0,0,1-.22-.52v-.67a1.59,1.59,0,0,1,.53-1.2,39.22,39.22,0,0,0,4.46-4.66,5.91,5.91,0,0,0,1.48-3.44,2.26,2.26,0,0,0-.54-1.62A1.93,1.93,0,0,0,92.89,64a3.2,3.2,0,0,0-2.12,1,.73.73,0,0,1-.52.21.65.65,0,0,1-.49-.21l-1-1a.7.7,0,0,1-.22-.52.65.65,0,0,1,.22-.5,7.14,7.14,0,0,1,2.12-1.43,6.27,6.27,0,0,1,2.52-.46,5.13,5.13,0,0,1,3.67,1.33A4.64,4.64,0,0,1,98.48,66q0,3.27-4.61,7.94a.08.08,0,0,0,0,0s0,0,0,0a17.94,17.94,0,0,1,2.42-.21h2.13A.64.64,0,0,1,99,74a.69.69,0,0,1,.21.51V76.2a.7.7,0,0,1-.21.52.67.67,0,0,1-.51.22Z"/></g></g></svg>