<svg xmlns="http://www.w3.org/2000/svg" viewBox="0 0 135.76 135.76"><defs><style>.cls-1{fill:#011634;}</style></defs><title>icon_st01</title><g id="圖層_2" data-name="圖層 2"><g id="圖層_1-2" data-name="圖層 1"><path class="cls-1" d="M67.83,135.76A67.86,67.86,0,0,1,45.23,3.93a67.83,67.83,0,0,1,86.6,41.3h0a67.95,67.95,0,0,1-64,90.53ZM67.93,3A64.88,64.88,0,0,0,6.75,89.52,64.85,64.85,0,0,0,89.52,129,64.85,64.85,0,0,0,129,46.23h0A65,65,0,0,0,67.93,3Z"/><path class="cls-1" d="M32.77,95.53s-.05,0-.05,0v2.94a.45.45,0,0,1-.12.31.42.42,0,0,1-.3.12h-.47A.23.23,0,0,1,32,99a.19.19,0,0,1,0,.18c-.19.39-.34.67-.44.85s0,.05,0,.05H34a.38.38,0,0,1,.3.13.41.41,0,0,1,.12.3v.59a.45.45,0,0,1-.12.31.41.41,0,0,1-.3.12H24.24a.44.44,0,0,1-.3-.12.45.45,0,0,1-.12-.31v-.59a.43.43,0,0,1,.42-.43h2.29s0,0,0-.05c-.07-.2-.16-.42-.26-.64a.33.33,0,0,1,0-.29.34.34,0,0,1,.23-.19l.07,0h-.78a.44.44,0,0,1-.3-.12.45.45,0,0,1-.12-.31V95.66s0,0-.05,0c-.3.18-.57.34-.83.48a.47.47,0,0,1-.33,0,.51.51,0,0,1-.29-.2,6.71,6.71,0,0,0-.52-.63.32.32,0,0,1-.08-.21.28.28,0,0,1,.17-.27,7.63,7.63,0,0,0,1.4-.88s0,0,0-.07a9.31,9.31,0,0,0-.74-.61A.34.34,0,0,1,24,93a.4.4,0,0,1,.1-.28l.37-.37a.52.52,0,0,1,.66-.1,6.49,6.49,0,0,1,.85.61s.05,0,.07,0a7.73,7.73,0,0,0,.66-.85s0-.05,0-.05H24.94a.41.41,0,0,1-.3-.12.43.43,0,0,1-.13-.3V91a.46.46,0,0,1,.13-.31.41.41,0,0,1,.3-.12h2.68a.57.57,0,0,1,.18,0,.72.72,0,0,1,.32.08l.54.27a.47.47,0,0,1,.23.25.4.4,0,0,1,0,.34,8.84,8.84,0,0,1-1,1.81s0,0,0,0h2.52s.05,0,0,0A11.9,11.9,0,0,1,29.13,91a.34.34,0,0,1,0-.31.37.37,0,0,1,.24-.2l.72-.22.13,0a.46.46,0,0,1,.2,0,.47.47,0,0,1,.24.24,6.54,6.54,0,0,0,.35.64s0,0,.06,0l.7-.66a.44.44,0,0,1,.3-.15.48.48,0,0,1,.33.08L33,91a.33.33,0,0,1,.13.25.32.32,0,0,1-.11.27c-.44.33-.84.62-1.2.86a0,0,0,0,0,0,.07,3.22,3.22,0,0,0,.35.38s0,0,.08,0a9.94,9.94,0,0,0,.86-.8.55.55,0,0,1,.32-.14.43.43,0,0,1,.33.08l.6.42a.34.34,0,0,1,.14.26.32.32,0,0,1-.12.26c-.35.29-.71.57-1.06.82a0,0,0,0,0,0,0s0,0,0,0a6.75,6.75,0,0,0,1.3.75.27.27,0,0,1,.16.2.18.18,0,0,1,0,.06.27.27,0,0,1-.08.19,9.63,9.63,0,0,0-.66.83.45.45,0,0,1-.27.2.42.42,0,0,1-.33,0C33.23,95.81,33,95.67,32.77,95.53Zm-5.66-.72a.29.29,0,0,1-.29-.31h0a8.85,8.85,0,0,1-1,.81,0,0,0,0,0,0,0h6.63a0,0,0,0,0,0,0,9.78,9.78,0,0,1-1-.87h0v0a.36.36,0,0,1-.11.26.32.32,0,0,1-.25.11Zm3.78,2a.05.05,0,0,0-.06-.06H27.17a.05.05,0,0,0-.06.06v.67a.05.05,0,0,0,.06.06h3.66a.05.05,0,0,0,.06-.06ZM30,100.12h0a.18.18,0,0,1-.14-.1.21.21,0,0,1,0-.19c.13-.29.25-.57.36-.85,0,0,0,0,0,0H28s0,0,0,0a4.79,4.79,0,0,1,.31.65.35.35,0,0,1,0,.3.44.44,0,0,1-.25.19H30Z"/><path class="cls-1" d="M38,90.94a.46.46,0,0,1,.13-.31.41.41,0,0,1,.3-.12h3.6a.41.41,0,0,1,.43.43q.15,6,4.39,8.75A.27.27,0,0,1,47,100a.32.32,0,0,1-.09.24,3.77,3.77,0,0,0-.43.45l-.45.5a.48.48,0,0,1-.28.17.47.47,0,0,1-.33-.06,10.08,10.08,0,0,1-4-5.42s0,0,0,0h0a10.86,10.86,0,0,1-4,5.44.49.49,0,0,1-.28.09l-.06,0a.53.53,0,0,1-.32-.15c-.13-.13-.28-.28-.47-.45l-.52-.44a.26.26,0,0,1-.1-.21.28.28,0,0,1,.13-.26c2.06-1.15,3.41-3.17,4.08-6a.41.41,0,0,1,.18-.28.44.44,0,0,1,.32-.06l.42.08,0,0s0,0,0,0c-.06-.33-.11-.7-.15-1.1a.05.05,0,0,0-.06-.06H38.44a.37.37,0,0,1-.29-.13A.41.41,0,0,1,38,91.9Z"/><path class="cls-1" d="M49,100.62a.43.43,0,0,1-.31-.12.46.46,0,0,1-.13-.31V91.92a.42.42,0,0,1,.13-.3.4.4,0,0,1,.31-.13h5a.38.38,0,0,1,.3.13.41.41,0,0,1,.12.3v1a.45.45,0,0,1-.12.31.41.41,0,0,1-.3.12H50.78s-.06,0-.06,0v1.89a.05.05,0,0,0,.06.06h2.63a.41.41,0,0,1,.42.42v1a.4.4,0,0,1-.12.29.42.42,0,0,1-.3.13H50.78a.05.05,0,0,0-.06.06v3a.45.45,0,0,1-.12.31.41.41,0,0,1-.3.12Z"/><path class="cls-1" d="M56.36,100.62a.41.41,0,0,1-.3-.12.42.42,0,0,1-.13-.31V91.92a.44.44,0,0,1,.43-.43h2.76c2.27,0,3.41.76,3.41,2.27a2.29,2.29,0,0,1-.33,1.18,1.66,1.66,0,0,1-.84.78s0,0,0,0,0,0,0,0a2.26,2.26,0,0,1,1.16.75,2.13,2.13,0,0,1,.44,1.4,2.43,2.43,0,0,1-.49,1.52,2.63,2.63,0,0,1-1.28.9,5.56,5.56,0,0,1-1.81.27Zm1.77-5.56s0,0,.06,0H59a1.63,1.63,0,0,0,1-.27.92.92,0,0,0,.33-.76.78.78,0,0,0-.33-.7,1.84,1.84,0,0,0-1-.22h-.85a.05.05,0,0,0-.06.06Zm0,3.83a.05.05,0,0,0,.06.06h1c1.07,0,1.6-.39,1.6-1.18a.88.88,0,0,0-.39-.8,2.36,2.36,0,0,0-1.21-.24h-1a.05.05,0,0,0-.06.06Z"/><path class="cls-1" d="M75.38,99.11a.43.43,0,0,1-.12.31.42.42,0,0,1-.3.13H73.4c.69.42,1.28.81,1.75,1.16a.26.26,0,0,1,.09.24.22.22,0,0,1-.14.21l-.89.43a.57.57,0,0,1-.27.07.61.61,0,0,1-.42-.18,17,17,0,0,0-1.42-1.09.27.27,0,0,1-.13-.24.29.29,0,0,1,.12-.24l.5-.36h0s0,0,0,0H70l.77.26a.26.26,0,0,1,.16.19.21.21,0,0,1-.07.24,8.52,8.52,0,0,1-2.22,1.39.43.43,0,0,1-.22.06.32.32,0,0,1-.14,0,.58.58,0,0,1-.32-.18q-.33-.34-.69-.66a.25.25,0,0,1-.08-.23.2.2,0,0,1,.16-.16,6.2,6.2,0,0,0,1.89-.87v0s0,0,0,0H67.73a.42.42,0,0,1-.3-.13.43.43,0,0,1-.12-.31v-.4s0,0,0,0c-1,.45-1.83.84-2.61,1.19a.36.36,0,0,1-.32,0,.41.41,0,0,1-.22-.23l-.36-1a.23.23,0,0,1,0-.14.41.41,0,0,1,0-.18A.42.42,0,0,1,64,98.1l1-.38a.08.08,0,0,0,0-.07V94.76s0-.06,0-.06h-.66a.4.4,0,0,1-.29-.12.38.38,0,0,1-.13-.3v-.82a.42.42,0,0,1,.13-.31.4.4,0,0,1,.29-.12H65a0,0,0,0,0,0,0V90.76a.4.4,0,0,1,.12-.29.42.42,0,0,1,.31-.13h.8a.38.38,0,0,1,.3.13.4.4,0,0,1,.12.29V93s0,0,.06,0h.51a.41.41,0,0,1,.3.12.45.45,0,0,1,.12.31v.82a.41.41,0,0,1-.42.42h-.51a.05.05,0,0,0-.06.06V97s0,0,.06,0l.51-.21a.35.35,0,0,1,.3,0,.37.37,0,0,1,.2.24L68,98s0,0,.06,0H75a.38.38,0,0,1,.3.13.41.41,0,0,1,.12.3Zm-4.88-6.4a.05.05,0,0,0,.06-.06v-.28s0-.05-.06-.05H68.13a.39.39,0,0,1-.3-.13.42.42,0,0,1-.13-.3v-.58a.41.41,0,0,1,.13-.29.39.39,0,0,1,.3-.13H70.5a.05.05,0,0,0,.06-.06v-.27a.43.43,0,0,1,.42-.44h.88a.42.42,0,0,1,.3.13.43.43,0,0,1,.12.31v.27a.05.05,0,0,0,.06.06h2.41a.41.41,0,0,1,.3.13.4.4,0,0,1,.12.29v.58a.43.43,0,0,1-.42.43H72.34s-.06,0-.06.05v.28a.05.05,0,0,0,.06.06H74a.41.41,0,0,1,.42.42v4.14a.4.4,0,0,1-.12.29.38.38,0,0,1-.3.13H69a.42.42,0,0,1-.31-.13.4.4,0,0,1-.12-.29V93.13a.41.41,0,0,1,.12-.3.45.45,0,0,1,.31-.12Zm2.13,1.35a0,0,0,0,0,.05,0v-.19s0,0-.05,0h-2.4s-.06,0-.06,0V94s0,0,.06,0Zm0,1.29s.05,0,.05-.06V95.1s0-.06-.05-.06h-2.4a.05.05,0,0,0-.06.06v.19a.05.05,0,0,0,.06.06Zm0,1.28s.05,0,.05,0v-.2a0,0,0,0,0-.05,0h-2.4s-.06,0-.06,0v.2s0,0,.06,0Z"/><path class="cls-1" d="M85.68,96.51a.43.43,0,0,1-.12.31.46.46,0,0,1-.31.13H81a.08.08,0,0,0-.08,0,3.53,3.53,0,0,1-.23.33s0,0,0,0h5.76a.42.42,0,0,1,.3.13.4.4,0,0,1,.12.29,1.36,1.36,0,0,0,0,.18,22.44,22.44,0,0,1-.19,2.24,2.13,2.13,0,0,1-.35,1,1.59,1.59,0,0,1-1,.49,6.17,6.17,0,0,1-1,.06h-.12a.44.44,0,0,1-.3-.12.58.58,0,0,1-.18-.31,3.22,3.22,0,0,0-.35-1,.15.15,0,0,1,0-.07s0,0,.07,0h0a4.51,4.51,0,0,0-.36-.66.33.33,0,0,1,0-.3.32.32,0,0,1,.2-.22l.66-.27s0,0,0,0H79.33a.13.13,0,0,0-.1,0l-.32.24a0,0,0,0,0,0,0,0,0,0,0,0,0,0l.14,0a.47.47,0,0,1,.33.54,4.56,4.56,0,0,1-.63,1.62.43.43,0,0,1-.3.19.44.44,0,0,1-.35-.06l-.58-.31a.31.31,0,0,1-.17-.23.36.36,0,0,1,.06-.29,3.65,3.65,0,0,0,.41-.84s0,0,0,0h0l-.36.18a.41.41,0,0,1-.34,0,.5.5,0,0,1-.29-.21c-.17-.25-.34-.49-.5-.69a.27.27,0,0,1-.07-.18.31.31,0,0,1,0-.09.25.25,0,0,1,.18-.19A6.49,6.49,0,0,0,78.91,97a0,0,0,0,0,0,0h-.58a.44.44,0,0,1-.44-.44V93.7s0-.06,0-.06h-1a.45.45,0,0,1-.31-.12.41.41,0,0,1-.12-.3v-1.9a.4.4,0,0,1,.12-.29.46.46,0,0,1,.31-.13h4s0,0,0-.06v-.27a.42.42,0,0,1,.13-.3.41.41,0,0,1,.3-.12h.94a.45.45,0,0,1,.31.12.41.41,0,0,1,.12.3v.27s0,.06.05.06h4a.43.43,0,0,1,.3.13.41.41,0,0,1,.13.29v1.9a.42.42,0,0,1-.13.3.42.42,0,0,1-.3.12h-1s0,0,0,.06Zm-5.09-4.07s0,0,0,0h-2.5s0,0,0,0v.37s0,.07,0,.08l.72.1h.11A8.58,8.58,0,0,0,80.59,92.44Zm-1.06,3s-.06,0-.06,0v.19s0,.05.06.05H84a0,0,0,0,0,0-.05v-.19a0,0,0,0,0,0,0H82.66a.37.37,0,0,1-.29-.13.42.42,0,0,1-.13-.3v-.29a.42.42,0,0,1,.13-.3.4.4,0,0,1,.29-.12H84s0,0,0-.06V94.1s0-.06,0-.06H82.46a.45.45,0,0,1-.31-.12.42.42,0,0,1-.12-.3v-.33a.44.44,0,0,1,.12-.3.45.45,0,0,1,.31-.12h3s0,0,0-.06v-.35a0,0,0,0,0,0,0H80.79a0,0,0,0,0,0,0s0,0,0,0l.66.68a.27.27,0,0,1,.08.25.27.27,0,0,1-.18.21,11.37,11.37,0,0,1-1.81.47s-.06,0-.06.07v.14a.05.05,0,0,0,.06.06h1.4a.42.42,0,0,1,.29.12.41.41,0,0,1,.12.3V95a.41.41,0,0,1-.12.3.39.39,0,0,1-.29.13Zm.2,4.14a.37.37,0,0,1,.07-.31.35.35,0,0,1,.26-.16l.47,0a.47.47,0,0,1,.34.08.46.46,0,0,1,.19.28,7.81,7.81,0,0,1,.2,1.37.4.4,0,0,1-.11.31.46.46,0,0,1-.3.17l-.56.06a.37.37,0,0,1-.28-.09.36.36,0,0,1-.13-.29A9.56,9.56,0,0,0,79.73,99.61Zm1.69.06a.4.4,0,0,1,.26-.51l.4-.09a.49.49,0,0,1,.58.28,7.57,7.57,0,0,1,.29.93.42.42,0,0,1,0,.33.46.46,0,0,1-.28.19l-.48.12a.35.35,0,0,1-.3,0,.39.39,0,0,1-.17-.26A6.9,6.9,0,0,0,81.42,99.67Zm3-.21a.36.36,0,0,1,0,.32.37.37,0,0,1-.23.23l-.52.22s0,0,0,0h0l.52,0h.14a.57.57,0,0,0,.41-.12,3.13,3.13,0,0,0,.25-1.35s0-.06,0-.06H84s0,0,0,0,0,0,0,0A3.22,3.22,0,0,1,84.46,99.46Z"/><path class="cls-1" d="M98.37,99.23a.42.42,0,0,1-.12.3.41.41,0,0,1-.3.12H96.6v0c1.23.49,2.15.89,2.77,1.18a.18.18,0,0,1,0,.34l-1.32.48a.73.73,0,0,1-.3.06.86.86,0,0,1-.45-.13,20.55,20.55,0,0,0-2.3-1.14.18.18,0,0,1-.13-.18.2.2,0,0,1,.1-.19l.75-.42h0a0,0,0,0,0,0,0H92.53s0,0,0,0l.68.31a.19.19,0,0,1,.13.19.2.2,0,0,1-.1.21,15.16,15.16,0,0,1-3.12,1.33l-.23,0a.64.64,0,0,1-.48-.23c-.25-.27-.49-.5-.7-.7a.2.2,0,0,1-.07-.21.17.17,0,0,1,.16-.15,13.08,13.08,0,0,0,2.65-.78,0,0,0,0,0,0,0s0,0,0,0h-1a.44.44,0,0,1-.3-.12.42.42,0,0,1-.12-.3V95.05a.45.45,0,0,1,.12-.31.44.44,0,0,1,.3-.12H92.6s0,0,0-.05a4.72,4.72,0,0,0-.58-.86h0a0,0,0,0,0,0,0,.25.25,0,0,1,0,.19.23.23,0,0,1-.15.12c-.58.17-1.4.39-2.44.66a.5.5,0,0,1-.34,0,.47.47,0,0,1-.24-.24l-.32-.77a.22.22,0,0,1,0-.13.3.3,0,0,1,0-.16.31.31,0,0,1,.24-.17c.53-.09,1.44-.28,2.74-.55a.37.37,0,0,1,.31.07.39.39,0,0,1,.16.28l.06.6a.06.06,0,0,0,.06,0,6.05,6.05,0,0,0,1.88-.56,1.87,1.87,0,0,0,.83-.89s0-.06,0-.06h-.54a.1.1,0,0,0-.09,0,5.85,5.85,0,0,1-.58.63.47.47,0,0,1-.31.12.57.57,0,0,1-.33-.11,6.73,6.73,0,0,0-.63-.4.23.23,0,0,1-.14-.19.26.26,0,0,1,.1-.24,5.41,5.41,0,0,0,1.27-1.47.57.57,0,0,1,.26-.25A.54.54,0,0,1,94,90.2h.1l.72.12a.27.27,0,0,1,.22.16.28.28,0,0,1,0,.28,1,1,0,0,0,0,.1s0,0,0,0h3.3l.19,0,.26,0,.52.13a.36.36,0,0,1,.24.19.34.34,0,0,1,0,.31,10.53,10.53,0,0,1-.69,1.18.55.55,0,0,1-.29.23.59.59,0,0,1-.37,0l-.56-.16a.28.28,0,0,1-.2-.18.34.34,0,0,1,0-.28l.09-.15s0,0,0,0h-.92s0,0,0,0a1.62,1.62,0,0,0,.43.6,3.19,3.19,0,0,0,.93.46,8.43,8.43,0,0,0,1.63.33.26.26,0,0,1,.19.15.28.28,0,0,1,0,.09.23.23,0,0,1,0,.15,5.43,5.43,0,0,0-.43.75A.55.55,0,0,1,99,95a.48.48,0,0,1-.35.05l-.22,0s-.06,0-.06,0ZM91.8,91a.33.33,0,0,1,.21.22.37.37,0,0,1,0,.31l-.37.61a.54.54,0,0,1-.27.2.46.46,0,0,1-.33,0,18.91,18.91,0,0,0-1.79-.67.36.36,0,0,1-.21-.21.28.28,0,0,1,0-.28l.31-.48a.65.65,0,0,1,.28-.24.59.59,0,0,1,.37,0C90.65,90.54,91.25,90.74,91.8,91Zm0,4.7a.05.05,0,0,0-.06.06v.23a.05.05,0,0,0,.06.06h4.75a.05.05,0,0,0,.06-.06v-.23a.05.05,0,0,0-.06-.06Zm0,1.32s-.06,0-.06,0v.24a.05.05,0,0,0,.06.06h4.75a.05.05,0,0,0,.06-.06V97s0,0-.06,0Zm0,1.31a.05.05,0,0,0-.06.06v.25s0,0,.06,0h4.75s.06,0,.06,0v-.25a.05.05,0,0,0-.06-.06Zm2.17-3.67h0s0,0,0,0h3.29a3.84,3.84,0,0,1-1.47-1s0,0-.07,0A4.11,4.11,0,0,1,93.93,94.61Z"/><path class="cls-1" d="M112.24,97.83s0,0,0,.07a.43.43,0,0,1-.09.26.5.5,0,0,1-.27.18l-1,.16a.06.06,0,0,0,0,.06v2.8a.4.4,0,0,1-.12.29.46.46,0,0,1-.31.13h-.81a.42.42,0,0,1-.3-.13.4.4,0,0,1-.12-.29V98.87s0-.05-.06,0l-2.75.49a.39.39,0,0,1-.31-.07.4.4,0,0,1-.17-.27l-.17-1.06a0,0,0,0,0,0,0,0,0,0,0,0,0,0l-.71.93a.25.25,0,0,1-.24.1.27.27,0,0,1-.22-.15c-.12-.23-.27-.52-.46-.85h0s0,0,0,0v3.4a.44.44,0,0,1-.12.3.45.45,0,0,1-.31.12h-.79a.45.45,0,0,1-.31-.12.44.44,0,0,1-.12-.3V97.84a0,0,0,0,0,0,0h0a14.15,14.15,0,0,1-1,2.35.16.16,0,0,1-.18.1.19.19,0,0,1-.17-.13,10.79,10.79,0,0,0-.47-1.08.69.69,0,0,1,.07-.72,10.76,10.76,0,0,0,1.19-2.45s0,0,0,0h-.75a.41.41,0,0,1-.29-.13.4.4,0,0,1-.13-.31v-.8a.38.38,0,0,1,.13-.3.37.37,0,0,1,.29-.13h1.32a0,0,0,0,0,0,0V90.63a.41.41,0,0,1,.12-.3.45.45,0,0,1,.31-.12h.79a.45.45,0,0,1,.31.12.41.41,0,0,1,.12.3v3h0q.3-1.14.51-2.4a.38.38,0,0,1,.16-.27.34.34,0,0,1,.31-.06l.65.13a.35.35,0,0,1,.26.18.42.42,0,0,1,0,.31c-.31,1-.54,1.72-.69,2.14a.47.47,0,0,1-.22.26.53.53,0,0,1-.35,0l-.62-.15s-.05,0-.05,0v.36a0,0,0,0,0,.05,0h1.22a.4.4,0,0,1,.31.13.41.41,0,0,1,.12.3v.8a.43.43,0,0,1-.12.31.44.44,0,0,1-.31.13H104.1s0,0,0,0,0,0,0,0a10.85,10.85,0,0,1,.8.79c.37.39.65.71.86,1a.11.11,0,0,0,.08,0l3.35-.6s.06,0,.06-.06V90.54a.41.41,0,0,1,.12-.3.38.38,0,0,1,.3-.13h.81a.42.42,0,0,1,.31.13.41.41,0,0,1,.12.3v6.21s0,.06,0,0l.68-.13a.4.4,0,0,1,.32.08.5.5,0,0,1,.18.27Zm-9.92-4.51a.46.46,0,0,1-.08.34.5.5,0,0,1-.29.2l-.49.12a.3.3,0,0,1-.29,0,.36.36,0,0,1-.14-.27,14.45,14.45,0,0,0-.36-2.1.4.4,0,0,1,0-.32.38.38,0,0,1,.26-.19l.41-.11a.4.4,0,0,1,.32,0,.38.38,0,0,1,.2.26A12.67,12.67,0,0,1,102.32,93.32Zm3.83,1.89a.44.44,0,0,1-.2-.27.45.45,0,0,1,.06-.32l.38-.56a.46.46,0,0,1,.27-.2.43.43,0,0,1,.33,0,10.71,10.71,0,0,1,1.39.94.51.51,0,0,1,.09.64l-.44.71a.32.32,0,0,1-.25.15.35.35,0,0,1-.28-.09A10.64,10.64,0,0,0,106.15,95.21Zm2.67-3.35a.41.41,0,0,1,.16.31.59.59,0,0,1-.1.34l-.43.64a.33.33,0,0,1-.26.13.33.33,0,0,1-.27-.1,10.27,10.27,0,0,0-1.27-1.05.43.43,0,0,1-.1-.59l.36-.52a.55.55,0,0,1,.29-.18.49.49,0,0,1,.33.06A14.44,14.44,0,0,1,108.82,91.86Z"/><path class="cls-1" d="M90.44,27.29,59.49,14.36A4.22,4.22,0,0,0,54,16.62L44.31,39.83a4.2,4.2,0,0,0,2.25,5.48l31,12.93A4.22,4.22,0,0,0,83,56l9.69-23.21A4.2,4.2,0,0,0,90.44,27.29ZM79.13,54.37,48.18,41.44l9.69-23.21L88.82,31.16ZM64.87,39.55l-9.67-4L53.74,39l9.68,4Zm2.42-5.8-9.67-4-1.45,3.48,9.67,4ZM69.72,28l-9.68-4-1.45,3.48,9.67,4Zm8.17,18S75,43.67,75.67,42s3.08-1.4,4.45-4.69c1.12-2.67,1-4.59-1.7-5.71s-4.14.13-5.26,2.8c-1.37,3.29.47,4.86-.2,6.47S68.61,42,68.61,42c-.2-.08-1.33,2.63-1.33,2.63l9.68,4S78.09,46,77.89,45.9Z"/><path class="cls-1" d="M45.71,77.22A8.86,8.86,0,0,1,43,76.77a8.45,8.45,0,0,1-2.49-1.3.68.68,0,0,1-.26-.57.72.72,0,0,1,.16-.47L41.56,73a.68.68,0,0,1,.48-.26.87.87,0,0,1,.54.13A5.6,5.6,0,0,0,45.79,74a2.64,2.64,0,0,0,1.51-.35,1.17,1.17,0,0,0,.5-1,1,1,0,0,0-.42-.87A8.16,8.16,0,0,0,45.89,71l-.26-.12-2-.83a5.59,5.59,0,0,1-2.24-1.62,4,4,0,0,1-.89-2.64,4.2,4.2,0,0,1,1.59-3.32,6,6,0,0,1,4-1.35,7,7,0,0,1,4.49,1.54.76.76,0,0,1,.27.51.79.79,0,0,1-.17.55l-1,1.2a.74.74,0,0,1-.49.29.81.81,0,0,1-.55-.13,4.81,4.81,0,0,0-2.6-.79,2.35,2.35,0,0,0-1.37.35,1.11,1.11,0,0,0-.49,1,.83.83,0,0,0,.12.44,1.76,1.76,0,0,0,.25.34,2,2,0,0,0,.48.31,4.37,4.37,0,0,0,.57.26l.72.3a1,1,0,0,1,.22.08l1.94.77a4.49,4.49,0,0,1,2.65,6.11,4.48,4.48,0,0,1-1.14,1.54,5.29,5.29,0,0,1-1.87,1.06A7.56,7.56,0,0,1,45.71,77.22Z"/><path class="cls-1" d="M58.57,77.22A3.9,3.9,0,0,1,55.39,76a5.26,5.26,0,0,1-1-3.45V68.06s0-.08-.09-.08H53.5a.72.72,0,0,1-.73-.73V66a.74.74,0,0,1,.21-.53.8.8,0,0,1,.52-.25l1-.08c.07,0,.1,0,.1-.1l.3-2.32a.82.82,0,0,1,.28-.51.85.85,0,0,1,.56-.2h1.63a.73.73,0,0,1,.52.21.7.7,0,0,1,.21.5V65c0,.06,0,.08.08.08h2a.75.75,0,0,1,.74.73v1.45a.69.69,0,0,1-.22.52.7.7,0,0,1-.52.21h-2a.07.07,0,0,0-.08.08V72.5a2,2,0,0,0,.4,1.38,1.35,1.35,0,0,0,1.08.45,1.72,1.72,0,0,0,.39,0,.8.8,0,0,1,.54.11.67.67,0,0,1,.32.42l.28,1.26a1.41,1.41,0,0,1,0,.18.69.69,0,0,1-.12.39.65.65,0,0,1-.45.32A7.87,7.87,0,0,1,58.57,77.22Z"/><path class="cls-1" d="M68.31,77.22A5.91,5.91,0,0,1,64,75.55,6.07,6.07,0,0,1,62.29,71a6.86,6.86,0,0,1,.48-2.59,5.86,5.86,0,0,1,1.26-2,5.58,5.58,0,0,1,1.79-1.22,5,5,0,0,1,2.08-.44,4.64,4.64,0,0,1,3.79,1.58A6.35,6.35,0,0,1,73,70.53a8.19,8.19,0,0,1,0,.85.77.77,0,0,1-.28.52.88.88,0,0,1-.55.19H66c-.07,0-.09,0-.08.1a2.67,2.67,0,0,0,2.93,2.2A4.68,4.68,0,0,0,70.69,74a.73.73,0,0,1,.56,0,.76.76,0,0,1,.44.34l.53,1a.78.78,0,0,1,.07.56.72.72,0,0,1-.34.46A7.37,7.37,0,0,1,68.31,77.22Zm-2.48-7.59s0,.06.08.06h3.85a.09.09,0,0,0,.1-.1,2.25,2.25,0,0,0-.48-1.45A1.76,1.76,0,0,0,68,67.61a2.08,2.08,0,0,0-1.39.51A2,2,0,0,0,65.83,69.63Z"/><path class="cls-1" d="M76.08,81.29a.64.64,0,0,1-.49-.22.66.66,0,0,1-.22-.5V65.85a.67.67,0,0,1,.22-.52.64.64,0,0,1,.49-.22h1.59a.82.82,0,0,1,.55.21,1,1,0,0,1,.33.5l.08.41s0,0,.05,0a.08.08,0,0,0,.07,0A5,5,0,0,1,82,64.83a4,4,0,0,1,3.39,1.64,7,7,0,0,1,1.25,4.38,8.67,8.67,0,0,1-.41,2.72,6.06,6.06,0,0,1-1.12,2,4.81,4.81,0,0,1-1.6,1.23,4.18,4.18,0,0,1-1.85.43A3.8,3.8,0,0,1,79,76.1s0,0,0,0a.06.06,0,0,0,0,0l.1,1.75v2.68a.69.69,0,0,1-.21.5.67.67,0,0,1-.52.22Zm4.74-7.06a1.71,1.71,0,0,0,1.48-.82,5.88,5.88,0,0,0,.09-4.81A1.59,1.59,0,0,0,81,67.86a2.57,2.57,0,0,0-1.84.92.25.25,0,0,0-.06.16v4.51a.2.2,0,0,0,.06.15A2.62,2.62,0,0,0,80.82,74.23Z"/><path class="cls-1" d="M89.9,76.93a.69.69,0,0,1-.5-.21.72.72,0,0,1-.21-.52V74.66a.66.66,0,0,1,.21-.51.69.69,0,0,1,.5-.21h2.48c.07,0,.1,0,.1-.1V65.21a.09.09,0,0,0-.1-.1h-2a.69.69,0,0,1-.51-.2.67.67,0,0,1-.22-.51v-.85a.92.92,0,0,1,.71-.86,10.44,10.44,0,0,0,2.51-.89,2.8,2.8,0,0,1,1.34-.37h1.28a.72.72,0,0,1,.52.21.73.73,0,0,1,.21.52V73.84c0,.07,0,.1.09.1h2a.7.7,0,0,1,.5.21.66.66,0,0,1,.21.51V76.2a.72.72,0,0,1-.21.52.7.7,0,0,1-.5.21Z"/></g></g></svg>