<svg xmlns="http://www.w3.org/2000/svg" xmlns:xlink="http://www.w3.org/1999/xlink" viewBox="0 0 160 44.76"><defs><style>.cls-1{fill:#fff;}.cls-2{clip-path:url(#clip-path);}.cls-3{fill:none;}</style><clipPath id="clip-path"><path class="cls-1" d="M4,26.36c0,.32.26.94.73.94a5.2,5.2,0,0,0,1.95.45,4.88,4.88,0,0,1,.79.06,86.68,86.68,0,0,0,9.42.8,42,42,0,0,0,5.58-.39C23.87,28,77.19,28,80.13,28c5.28,0,10.71,0,21.58-.07C151,27.48,156,27.65,156,27c0-.5-2.17-.26-15.52-.49-37.4-.65-112.26-.11-121.42-.2-3.42,0-8.79-.23-11.28-.23h-.3a27.36,27.36,0,0,0-2.8-.14c-.37,0-.68.1-.68.44"/></clipPath></defs><title>icon_logo_w</title><g id="圖層_2" data-name="圖層 2"><g id="圖層_1-2" data-name="圖層 1"><polygon class="cls-1" points="149.88 21.86 149.49 21.86 149.49 21.73 150.43 21.73 150.43 21.86 150.03 21.86 150.03 22.9 149.88 22.9 149.88 21.86"/><polygon class="cls-1" points="150.6 21.73 150.82 21.73 151.19 22.71 151.56 21.73 151.78 21.73 151.78 22.9 151.63 22.9 151.63 21.92 151.62 21.92 151.26 22.9 151.12 22.9 150.75 21.92 150.75 21.92 150.75 22.9 150.6 22.9 150.6 21.73"/><path class="cls-1" d="M4,26.36c0,.32.26.94.73.94a5.2,5.2,0,0,0,1.95.45,4.88,4.88,0,0,1,.79.06,86.68,86.68,0,0,0,9.42.8,42,42,0,0,0,5.58-.39C23.87,28,77.19,28,80.13,28c5.28,0,10.71,0,21.58-.07C151,27.48,156,27.65,156,27c0-.5-2.17-.26-15.52-.49-37.4-.65-112.26-.11-121.42-.2-3.42,0-8.79-.23-11.28-.23h-.3a27.36,27.36,0,0,0-2.8-.14c-.37,0-.68.1-.68.44"/><g class="cls-2"><rect class="cls-1" x="3.94" y="25.92" width="152.13" height="2.69"/></g><path class="cls-1" d="M120.05,10.82a.88.88,0,0,0-.76-.75c-.44,0-1.18.56-1.18,1h0c0,.06,0,.15,0,.33s0,.45,0,.8,0,.61,0,.78,0,.78,0,1.27c0,.76,0,1.7,0,2.51,0,6.32,0,6.7.85,6.7s.82-.76.82-2.17c0-4.95.11-8.47.18-9.52,0-.3,0-.5,0-.69S120.05,10.92,120.05,10.82Z"/><path class="cls-1" d="M70.72,7c-.11,0-.23,0-1.17,1.79a11,11,0,0,0-.9,2c0,.41.63.65.8.65s1.07-.39,1.07-.71a1.72,1.72,0,0,0,0-.26s0-.08,0-.12A17.43,17.43,0,0,1,71,8.58a6.85,6.85,0,0,0,.3-1C71.32,7.2,70.9,7,70.72,7Z"/><path class="cls-1" d="M64,21l-.16-.19-1.31-1.37,0,0-.18-.17c-1.37-1.37-1.83-1.83-5.16-6.58a2.49,2.49,0,0,1-.17-.24l-.06-.06-1.06-1.5h0a.63.63,0,0,0-.54-.18h-.05c-.42,0-1.18.61-1.18,1s.18.4.41.6l.24.24a1,1,0,0,1,.12.49c0,.73-3.43,7.29-4.89,9.52a5.09,5.09,0,0,1-.3.42,1.33,1.33,0,0,0-.37.74c0,.41.44.67,1.18.72h0l.07,0h0A.94.94,0,0,0,51,24l0,0s0,0,0,0a.7.7,0,0,1,.06-.09l0-.07c0-.06,0-.1,0-.12l2-3.75c.34-.71.68-.9,1.58-.9h5.07l2.24,2.84.57.63.23.19a1,1,0,0,0,.16.12l.1.08h.06a.87.87,0,0,0,.28.05.93.93,0,0,0,.88-1,1,1,0,0,0-.2-.6Zm-5.32-3.58a20.5,20.5,0,0,1-2.45.1,10,10,0,0,1-1.77-.07h0a2.43,2.43,0,0,1,.26-.63L56,14.19Z"/><path class="cls-1" d="M67.39,10.55l0-.07-.07,0-.08,0h0a1,1,0,0,0-.68-.22,1,1,0,0,0-1,1.07v.12a.53.53,0,0,1,0,.12,2.41,2.41,0,0,0,0,.4v0a4.27,4.27,0,0,1,0,.49v.06c0,.1,0,.23,0,.37s0,.5,0,.8,0,.93,0,1.64c0,8.09.31,9.57.91,9.57s.82-.69.82-2c0-4.6.05-10.16.12-11.13v-.12a.11.11,0,0,1,0-.05v-.07s0,0,0-.08a.83.83,0,0,0,0-.13.62.62,0,0,1,0-.13A1.48,1.48,0,0,0,67.39,10.55Z"/><path class="cls-1" d="M24.07,17.42c0-.45-.3-.5-.52-.5H23.1c-.43,0-.89,0-1.17,0l.09-6,0-.17h0a.92.92,0,0,0-.87-.67.89.89,0,0,0-.86.56h-.05l0,4v.48c0,.53,0,1.13,0,1.79h-4.8c0-1.42.05-7.5.05-9.81V5a.88.88,0,0,0-.9-.81.92.92,0,0,0-.85.51h-.05l0,1.81v.13c0,.82.07,7.15.08,10.47-.8.08-1.57.24-1.57.74,0,.71.49.81,1,.81h.61c0,.87,0,1.71-.06,2.51s-.06,1.46-.06,2.15c0,.18,0,.71.57.71s1.07-.41,1.07-1.16V19.35a2.22,2.22,0,0,0,0-.37,1.47,1.47,0,0,1,0-.37c.42-.07,1.37-.12,2.39-.19s1.83-.11,2.51-.18l.13,12.45c0,.59.14.89.7.89s.8-1,.8-1.43l.1-11.81.89.06.59.05C23.88,18.45,24.07,17.73,24.07,17.42Z"/><path class="cls-1" d="M73.67,10.82a.89.89,0,0,0-.76-.76c-.45,0-1.18.57-1.18,1h0c0,.06,0,.14,0,.33s0,.43,0,.79v0c0,.28,0,.59,0,.77s0,.78,0,1.28c0,.75,0,1.7,0,2.5,0,6.32,0,6.7.86,6.7s.82-.76.82-2.17c0-4.95.11-8.47.18-9.53,0-.3,0-.49,0-.68Z"/><path class="cls-1" d="M37.16,21.33l-.16-.2-1.31-1.45-.06,0-.18-.19c-1.36-1.45-1.82-1.93-5.16-6.94l-.16-.25-.07-.07-1-1.53,0,0h0a.63.63,0,0,0-.46-.2h-.14c-.45,0-1.17.67-1.17,1s.17.41.4.63a2.94,2.94,0,0,1,.24.25,1.09,1.09,0,0,1,.12.53c0,.76-2.39,5.83-3.87,8.22-.1.17-.21.32-.3.45a1.4,1.4,0,0,0-.37.77c0,.42.45.7,1.19.75h.05l0,0h.05a.88.88,0,0,0,.49-.41l0,0a.17.17,0,0,0,0-.05l.06-.1,0-.06a.72.72,0,0,1,.05-.14l1-2.12a1.39,1.39,0,0,1,1.58-1h5.07l2.24,3,.57.67.22.19a.9.9,0,0,0,.19.15l.08.06h0a1,1,0,0,0,.29.05.94.94,0,0,0,.88-1,1.12,1.12,0,0,0-.19-.63Zm-5.32-3.78a18.38,18.38,0,0,1-2.46.1,11.19,11.19,0,0,1-1.77-.06v0a2.84,2.84,0,0,1,.26-.67l1.28-2.76Z"/><path class="cls-1" d="M52.23,14.69h0c.59-.92.83-1.31.83-1.54s-.2-.82-1.1-1a.22.22,0,0,0-.11,0h-.07a1,1,0,0,0-.51.38.73.73,0,0,0-.15.27l0,.11,0,0a25.64,25.64,0,0,1-1.76,3.48c-.68,1.24-1.38,2.51-1.77,3.37a23.54,23.54,0,0,1-2.13-5.58c0-.39-.76-.54-.92-.54s-.46.17-.67.72a46.88,46.88,0,0,1-3,5.21l-.29.47c-.68-1.42-2-4.73-2.8-7.1l-.77-2.5,0-.05a.63.63,0,0,0-.93-.23c-.36.17-1.13.68-1.13,1.07a1.63,1.63,0,0,0,.32.77,9.16,9.16,0,0,1,.54,1,76,76,0,0,1,3,7.37l.52,2a.62.62,0,0,0,.17.33h0l.19.14h0a1,1,0,0,0,.5.13.82.82,0,0,0,.85-.59h0a30,30,0,0,1,3.42-5.44,19.92,19.92,0,0,1,2.08,5.21.54.54,0,0,0,.1.2.87.87,0,0,0,.81.46.84.84,0,0,0,.84-.54v0a29.65,29.65,0,0,1,2.36-4.8C51.16,16.37,51.78,15.4,52.23,14.69Z"/><path class="cls-1" d="M89.67,9a.44.44,0,0,0-.49-.46c-.71,0-1.44,0-2.14.08s-1.42.07-2.13.07c-1.56,0-2.44-.07-3-.11-.23,0-.42,0-.58,0a.75.75,0,0,0-.53.2.88.88,0,0,0-.25.58c0,.45.23.93.66.93l.4,0,.34,0h2a32.15,32.15,0,0,1,.12,3.22c0,2.71-.23,10-.27,10.41a.69.69,0,0,0,.37.54,1,1,0,0,0,.56.18.74.74,0,0,0,.36-.09c.24-.13.52-.46.52-1.3,0-2.1.11-11.16.34-13h.24c.74,0,1.75,0,2.42-.11A1.47,1.47,0,0,0,89.67,9Z"/><path class="cls-1" d="M92.46,11.76c-3.54,0-5.16,3-5.16,5.78a5.31,5.31,0,0,0,1.37,3.78,4.11,4.11,0,0,0,2.92,1.28c2.44,0,4.91-1.88,4.91-5.49a6.25,6.25,0,0,0-1.19-4A3.59,3.59,0,0,0,92.46,11.76Zm2.37,5.58c0,3.46-2.28,3.63-2.73,3.63-2.48,0-3-3-3-3.74,0-2.72,1.56-4,3-4C94.57,13.27,94.83,16.12,94.83,17.34Z"/><path class="cls-1" d="M107.05,12.2h0c-.45-.32-.66-.42-.82-.42-.51,0-.51.61-.51,1.55,0,.14,0,.31,0,.51,0,1.45.11,4.48-1.29,5.92a2.71,2.71,0,0,1-2,.79c-2.9,0-3.51-3.75-3.51-6.89,0-.35,0-.69,0-1s0-.42,0-.58c0-.5-.23-.68-.45-.68a2.72,2.72,0,0,0-1,.32.81.81,0,0,0-.4.73,20.4,20.4,0,0,0,1,5.76c.62,1.86,1.79,4.07,3.86,4.07,5.24,0,5.4-8.46,5.4-9.43A.7.7,0,0,0,107.05,12.2Z"/><path class="cls-1" d="M116.37,20.9l-.1.11h0l.1-.11a30.41,30.41,0,0,1-3.52-3.66,1.09,1.09,0,0,0-.29-.24l1-.43a3.26,3.26,0,0,0,1.67-3.09,2.51,2.51,0,0,0-2.58-2.81,6.17,6.17,0,0,0-3.2,1.11c-.33.22-.28.63-.21,1.07,0,.15,0,.33,0,.51.06.92.12,2.48.12,3.85,0,.88-.18,4.43-.21,4.77a1,1,0,0,0,.2.79,1,1,0,0,0,.79.26h.21a.54.54,0,0,0,.56-.6V19.27c0-.54,0-1,0-1.34a.8.8,0,0,1,.53.28l2.09,2.27c.63.68,1,1.16,1.33,1.55l.37.45a.82.82,0,0,0,.72.35h0a1.91,1.91,0,0,0,.86-.38.81.81,0,0,0,.31-.64C117.18,21.64,117,21.51,116.37,20.9ZM111,15.62a16.86,16.86,0,0,1,.22-2.92,1.42,1.42,0,0,1,1.1-.52c1,0,1.12,1,1.12,1.57,0,1.64-2.07,2.6-2.3,2.66a.33.33,0,0,1-.14,0Z"/><path class="cls-1" d="M146.33,22.86l-.12.08h0l.12-.08a10.14,10.14,0,0,1-.53-1,78.24,78.24,0,0,1-3-7.38l-.52-2a.58.58,0,0,0-.19-.35l-.06-.06h0l0,0,0,0a1,1,0,0,0-.53-.14.8.8,0,0,0-.85.58v0a29.53,29.53,0,0,1-3.41,5.43,19.38,19.38,0,0,1-2.08-5.2.67.67,0,0,0-.1-.21.88.88,0,0,0-.81-.45.84.84,0,0,0-.84.53l0,0a30.11,30.11,0,0,1-2.35,4.8c-.65,1.18-1.27,2.15-1.72,2.86-.59.92-.83,1.3-.83,1.54s.19.82,1.09,1h.18a1.06,1.06,0,0,0,.52-.39,1.16,1.16,0,0,0,.15-.26s0-.08,0-.11l0-.05a27.1,27.1,0,0,1,1.76-3.48c.69-1.24,1.39-2.51,1.78-3.38a23.71,23.71,0,0,1,2.13,5.58c0,.4.76.55.92.55s.46-.18.66-.73a50.54,50.54,0,0,1,3-5.21c.12-.17.22-.33.3-.47.67,1.43,2,4.74,2.79,7.11l.78,2.5,0,.05a.63.63,0,0,0,.57.35.58.58,0,0,0,.36-.12c.37-.18,1.13-.68,1.13-1.07A1.56,1.56,0,0,0,146.33,22.86Z"/><path class="cls-1" d="M126,10.64a2.15,2.15,0,0,0-.45,0h0a5.76,5.76,0,0,0-1.26.08h0a3.6,3.6,0,0,0-2.26,1.75,3.52,3.52,0,0,0-.1,2.64,3.61,3.61,0,0,0,.88,1.27,9.78,9.78,0,0,0,1,.72c1.1.69,2.46,1.56,2.21,2.94a1.6,1.6,0,0,1-1.65,1.16,1.34,1.34,0,0,1-.35,0,2.35,2.35,0,0,1-.89-.39,2.12,2.12,0,0,0-.2-.12l0,0,0,0a2,2,0,0,0-1-.79.85.85,0,0,0-.22,0,.64.64,0,0,0-.64.46,1.06,1.06,0,0,0,.19.83l0,0a.9.9,0,0,0,.12.24,4.37,4.37,0,0,0,3.3,1.52,3.15,3.15,0,0,0,.71-.08h0a2.48,2.48,0,0,0,1.83-1.06,3.4,3.4,0,0,0,.53-2.17,4.83,4.83,0,0,0-2.81-3.3l-.3-.17a2.67,2.67,0,0,1-1.28-1.91,1.8,1.8,0,0,1,.44-1.36,1.81,1.81,0,0,1,1.35-.47,4.6,4.6,0,0,1,1.16.16l0,0a5.14,5.14,0,0,1,.54.32l.09.06a1,1,0,0,0,.51.22h0a.45.45,0,0,0,.35-.19,1.34,1.34,0,0,0,.14-1A2,2,0,0,0,126,10.64Z"/><path class="cls-1" d="M64.37,35c.16,0,.24-.19.35-.19a.1.1,0,0,1,.11.1c0,.12.34,1.14.34,1.22s-.09.06-.13.06-.11,0-.15-.08a1.45,1.45,0,0,0-1.57-.83c-.45,0-.45,0-.45.47V38.5c0,1,0,1.08.51,1.08.21,0,.23,0,.23.19s0,.09-.09.09l-1.18,0-1.18,0c-.07,0-.09,0-.09-.09s0-.19.23-.19c.49,0,.51-.08.51-1.08V35.75c0-.47,0-.47-.49-.47a1.52,1.52,0,0,0-1.53.83.16.16,0,0,1-.16.09c-.07,0-.12,0-.12-.08s.32-1,.33-1.14,0-.14.14-.14.16.16.5.16Z"/><path class="cls-1" d="M68,38.23s-.09,0-.11,0a3.7,3.7,0,0,0-.37,1c0,.14.08.27.36.27s.38,0,.38.13,0,.15-.09.15l-.8,0-.71,0s-.07,0-.07-.12,0-.15.24-.16.3-.25.45-.58.38-.89.53-1.35c.27-.84,1-2.59,1.11-2.71s.14,0,.18,0,.16,0,.19.09c.32.81,1.4,3.51,1.73,4.19.18.36.24.41.61.41.11,0,.11.07.11.13s0,.15-.09.15l-1.14,0c-.75,0-1,0-1.09,0s-.07,0-.07-.13,0-.15.28-.15.31,0,.31-.17-.4-1-.45-1.18Zm1.37-.31-.69-1.76c-.09.26-.65,1.54-.65,1.71,0,0,0,.05.15.05Z"/><path class="cls-1" d="M74.81,36.15c0-.81,0-.9-.59-.9-.09,0-.18,0-.18-.08s0-.19.13-.19l1.18,0,1.18,0c.11,0,.12,0,.12.19s-.09.08-.18.08c-.55,0-.59.09-.59.9V38.5c0,1,0,1.08.51,1.08.21,0,.23,0,.23.19s0,.09-.09.09l-1.18,0-1.18,0c-.07,0-.09,0-.09-.09s0-.19.23-.19c.49,0,.5-.08.5-1.08Z"/><path class="cls-1" d="M82.84,36.49a.5.5,0,0,0,.09-.25,2.27,2.27,0,0,0-.3-.91.88.88,0,0,0-.26-.08c-.22,0-.22,0-.22-.11s0-.16.11-.16l1,0,1,0s.06,0,.06.15,0,.12-.31.12a.23.23,0,0,0-.24.25c0,.24.64,2.19.76,2.62.07.23.08.28.11.28s0,0,.11-.19a13.54,13.54,0,0,0,1-2.68c0-.28-.25-.28-.4-.28s-.25,0-.25-.13,0-.14.14-.14l.79,0,.78,0c.06,0,.08,0,.08.13s0,.11-.27.14-.34,0-.52.44c-.65,1.52-1.24,3-1.63,4-.07.2-.12.22-.24.22s-.22-.29-.24-.36c-.35-1-.62-1.93-.9-2.8,0,0,0-.07-.06-.07s0,0-.11.16c-.55,1.18-1.21,2.55-1.46,3,0,.06-.06.11-.15.11s-.18-.07-.22-.18c-.3-.75-1.05-3.49-1.29-4.19,0-.06-.11-.33-.32-.33s-.3,0-.3-.14,0-.13.1-.13l1,0,1.08,0c.08,0,.09.07.09.13s0,.14-.35.14a.18.18,0,0,0-.19.2c0,.24.71,2.67.8,2.9,0,0,0,.15.08.15s0,0,.12-.2Z"/><path class="cls-1" d="M89.56,38.23c-.06,0-.1,0-.12,0a4,4,0,0,0-.37,1c0,.14.08.27.36.27s.39,0,.39.13,0,.15-.1.15l-.8,0-.7,0s-.08,0-.08-.12,0-.15.25-.16.3-.25.44-.58.38-.89.54-1.35c.27-.84,1-2.59,1.11-2.71s.13,0,.18,0,.16,0,.19.09c.32.81,1.4,3.51,1.72,4.19.18.36.24.41.61.41.11,0,.11.07.11.13s0,.15-.08.15l-1.14,0c-.76,0-1,0-1.09,0s-.08,0-.08-.13,0-.15.29-.15.31,0,.31-.17-.4-1-.46-1.18Zm1.36-.31-.68-1.76c-.1.26-.66,1.54-.66,1.71,0,0,0,.05.15.05Z"/><path class="cls-1" d="M96.55,36c0,.58,0,2.13,0,2.28,0,1.29,0,1.31.67,1.33.15,0,.17,0,.17.16s0,.12-.11.12l-.83,0-.84,0c-.1,0-.1-.06-.1-.14s0-.13.16-.14c.48,0,.54,0,.57-.57,0-.27,0-2.25,0-3.07a.47.47,0,0,0-.16-.4c-.27-.27-.31-.28-.53-.29s-.21,0-.21-.14,0-.13.09-.13l.73,0c.19,0,.66,0,.88,0a.24.24,0,0,1,.15.09c1,1.1,2,2.22,3.07,3.26,0-.76,0-1.48,0-2,0-1-.25-1.08-.7-1.08-.14,0-.14,0-.14-.14s0-.13.09-.13l.89,0,.83,0c.06,0,.08,0,.08.12s0,.15-.11.15c-.45,0-.59.13-.62.63s-.13,3.13-.13,3.94c0,.15,0,.15-.21.15,0,0,0,0-.24-.22Z"/><rect class="cls-3" width="160" height="44.76"/></g></g></svg>